<svg version="1.1" xmlns="http://www.w3.org/2000/svg" xmlns:xlink="http://www.w3.org/1999/xlink" x="0px" y="0px" viewBox="0 0 2000 1000" style="enable-background:new 0 0 2000 1000;" xml:space="preserve">
<style type="text/css">
	.st0{fill:none;stroke:#2E3552;stroke-width:8;stroke-linecap:round;stroke-linejoin:round;stroke-dasharray: 190;}
	.st1{fill:#466089;}
	.st2{fill:#FFDC64;}
	.st3{fill:#6E83B7;}
	.st4{fill:#FFFFFF;}
	.st5{fill:#FFC850;}
	.st6{fill:#D3D3D3;}
	.st7{fill:#895F27;}
	.st8{fill:#C48735;}
	.st9{fill:#ED986D;}
	.st10{fill:#F79673;}
	.st11{fill:#AB6624;}
	.st12{fill:#FCA78D;}
	.st13{fill:#2F3F60;}
	.st14{fill:#CCC5BC;}
	.st15{fill:#242D22;}
	.st16{fill:#D8AC01;}
	.st17{fill:#DA9836;}
	.st18{fill:none;stroke:#0A0A0A;stroke-width:12;stroke-linecap:round;stroke-linejoin:round;stroke-miterlimit:10;}

	svg {

		max-width: 300px;
		margin: 0 auto;
	}

    @keyframes rotate_one {

    	25% {

    		transform: rotate(-55deg);
    	}

    	50%, 100% {

    		transform: rotate(0deg);
    	}
    }

	.sub_one {

		transform-origin: 813.7px 765.5px;
		animation: rotate_one 6s ease-out infinite;
	}

    @keyframes rotate_two {

    	25% {

    		transform: rotate(-75deg);
    	}

    	50%, 100% {

    		transform: rotate(0deg);
    	}
    }

	.sub_two {

		transform-origin: 1120.4px 799.3px;
		animation: rotate_two 6s ease-out infinite;
	}

	@keyframes slide {

		25% {

			transform: translateX(-65px);
		}

		50%, 100% {

			transform: translateX(0px);
		}
	}

	.bobcat {

		animation: slide 6s ease-out infinite;
	}

	@keyframes mov {

		50% {

			transform: rotate(0deg);
		}

		70% {

			transform: rotate(30deg);
		}

		80% {

			transform: rotate(20deg);
		}
	}

	.bucket {

		transform-origin: 1019px 694.1px;
		animation: mov 6s ease-out infinite;
	}
	
    @keyframes pulsating_effect {

        50% {

           opacity: .8;
        }

        100% {

           opacity: 0;
           transform: scale(1.08);
        }
    }

    .bg path:nth-of-type(1) {

        opacity: 0;
        transform-origin: 971px 630px;
        animation: pulsating_effect 1.5s linear infinite;
    }

    .bg path:nth-of-type(2) {

        opacity: 0;
        transform-origin: 971px 630px;
        animation: pulsating_effect 1.5s .75s linear infinite;
    }
</style>
<g class="bg">
	<path fill="#EBF3FA" d="M180.7,895c0,0-248.3-201.7-103.2-429.4c93.6-146.9,376.8-158.8,527.2-69.1c64,38.2,220.6,163.3,350-122.6   C1106-60.3,1985.2,181.8,1818.3,541c-102,219.5,289.7,156.1,102.1,354H180.7z"/>
    <path fill="#EBF3FA" d="M180.7,895c0,0-248.3-201.7-103.2-429.4c93.6-146.9,376.8-158.8,527.2-69.1c64,38.2,220.6,163.3,350-122.6   C1106-60.3,1985.2,181.8,1818.3,541c-102,219.5,289.7,156.1,102.1,354H180.7z"/>
</g>
<g>
    <path fill="#EBF3FA" d="M180.7,895c0,0-248.3-201.7-103.2-429.4c93.6-146.9,376.8-158.8,527.2-69.1c64,38.2,220.6,163.3,350-122.6   C1106-60.3,1985.2,181.8,1818.3,541c-102,219.5,289.7,156.1,102.1,354H180.7z"/>
</g>
<g>
	<line class="st0" x1="0" y1="902" x2="2000" y2="902"/>
</g>
<g class="bobcat">
 	<path class="st7" d="M970.7,566.7l-8.9-6.3c3-1.4,5.1-4.1,6.6-5.5l4.6-9.9c0.3-0.9,1.4-1.4,2.3-1.1l0,0c0.9,0.3,1.4,1.4,1.1,2.3
		l-0.8,2.5c0.9-0.8,1.8-1.3,2.4-1.8l0,0c0.1-0.1,0.3-0.3,0.4-0.4l8.9-5.4c0.9-0.5,1.9-0.3,2.4,0.6c0.5,0.9,0.3,1.9-0.6,2.4l-7.5,4.6
		c0,0,0,0,0.1,0.1c0.1-0.1,0.1-0.1,0.3-0.3l8.9-5.4c0.9-0.5,1.9-0.3,2.4,0.6c0.5,0.9,0.3,1.9-0.6,2.4l-8.9,5.4l0,0
		c0,0.1,0.1,0.1,0.1,0.3l6.6-4c0.9-0.5,1.9-0.3,2.4,0.6c0.5,0.9,0.3,1.9-0.6,2.4l-1,0.6c0.4,0.1,0.6,0.4,0.9,0.8
		c0.5,0.9,0.3,1.9-0.6,2.4l-6.8,4l0,0l0,0l-2.3,1.4c-0.1,0.1-0.3,0.1-0.4,0.3L970.7,566.7z"/>
 	<polygon class="st8" points="967.8,569.4 969.5,557.9 930.5,568.1 937.2,583.6 	"/>
	<polygon class="st7" points="970.7,566.7 952.9,580.3 944.9,562.7 968.7,555.2 	"/>
	<polygon class="st8" points="935.6,579.7 944.1,566.1 923.5,529.2 911.9,542.1 	"/>
	<polygon class="st9" points="914.1,580.3 927.6,580.6 918.2,543 904.6,542.6 	"/>
	<path class="st10" d="M900.2,513.1c0.1-0.5,5.4-36.4,5.4-36.4l12.8,24.8l-2.3,14.9L900.2,513.1z"/>
	<path class="st11" d="M905.3,455.6c0,0-0.3,13.8-0.8,23.5c-0.5,8.6,1,12,1,12l-4.3,13c0,0-3.1-7.4-7.5-11.4
		C885.2,484.7,877.5,452.1,905.3,455.6z"/>
    <path class="st12" d="M927.2,459.3c0,0,5.4,11.5,4.5,13.9c-0.8,2.4-0.3,3.1-0.3,3.1s1.4,6.3,5.5,10c1.8,1.6-2.8,4.6-3.5,8
		c-0.4,1.6-0.1,6.3-0.1,6.3s-0.9,9.8-18,4c-8.6-3-9.9-6.8-13.3-13.5c-1-2.1,2.4-7.1,1.3-9.8c-2.8-7.1-7.1-15-7.1-15
		S912.3,452.5,927.2,459.3z"/>
	<path class="st13" d="M900.8,507c-26.3,19.8-16.2,53-20.5,89.4L931,608c1-34.8,0-72.9-14-92.8L900.8,507z"/>
	<path class="st11" d="M929.7,469.9c0,0,2-13.5-9.9-17.4c-15.5-5.1-21.9,6.5-24,8.3C893.5,462.5,883,492.2,929.7,469.9z"/>
	<path class="st11" d="M917.5,457.8c0,0,2.5,9-1.6,18.5c-4,9.5-4.4,15.8-4.4,15.8l-3.1,0.3c0,0-4.4,2.6-10.5,0.1
		c-0.8-0.3,1.9,2,1.3,1.5C889,486.4,891,447.2,917.5,457.8z"/>
	<path class="st14" d="M885.2,479.2l46.6-7.6l-0.8-4.6c-2-12.3-13.6-20.5-25.9-18.5l-0.5,0.1c-13.1,2.1-22,14.6-19.9,27.7
		L885.2,479.2z"/>
	<path class="st14" d="M902.7,475.8l37.1-5.5c1-0.1,1.8-1.1,1.5-2.1l-0.1-0.8c-0.1-1-1.1-1.8-2.1-1.5l-37.1,5.5
		c-1,0.1-1.8,1.1-1.5,2.1l0.1,0.8C900.7,475.3,901.7,475.9,902.7,475.8z"/>
 	<path class="st15" d="M925.7,481.9c0.3,1.8,1.1,3.1,2,3c0.9-0.1,1.4-1.6,1.1-3.4c-0.3-1.8-1.1-3.1-2-3
		C926,478.7,925.5,480.2,925.7,481.9z"/>
	<path class="st15" d="M930.2,476c-1.9-1.6-6-1-7.1,1.1c-0.5,0.9,0.8,2,1.4,1c0.9-1.4,3.5-1.9,4.9-0.9
		C930.1,478.2,931.1,476.8,930.2,476L930.2,476z"/>
	<path class="st4" d="M924.3,494.3l6.5-0.3l-0.5,5.5C926,499.7,924.3,494.3,924.3,494.3z"/>
	<path class="st12" d="M901.6,491.9c2.1,2.9,5.4,4.1,7.1,2.8c1.9-1.4,1.6-4.8-0.5-7.6c-2.1-2.9-5.4-4.1-7.1-2.8
		C899.2,485.5,899.4,489.1,901.6,491.9z"/>
	<path class="st16" d="M931.1,566.9c-1.6,2.9-49.7-3.9-49.5-7l0.5-6.8c17.3,6.5,33.4,9.5,48,7.8L931.1,566.9L931.1,566.9z"/>
	<path class="st16" d="M930.9,608.1c-2.1,4-52.1-2-51.2-6.3l0.5-6.8c16.8,7.4,33.8,10,50.7,7.3V608.1z"/>
	<path class="st17" d="M913.6,608l17.7-6.3l-23.9-74.2c-3.9-8.9-21.3-6.3-18.2,4.8L913.6,608z"/>
	<path class="st8" d="M900.8,507l16,8.3c0,0,5.6,7.8,6.6,13.9l-26.9-18.8L900.8,507z"/>
	<line class="st18" x1="1045.2" y1="593.8" x2="990.6" y2="557.3"/>
	<line class="st18" x1="1001" y1="526.4" x2="968.9" y2="576.4"/>
	<path class="st7" d="M962,579.3l-8.1-7.3c3.1-1,5.6-3.5,7.3-4.8l5.9-9.3c0.4-0.9,1.4-1.3,2.4-0.9l0,0c0.9,0.4,1.3,1.4,0.9,2.4
		l-1.1,2.5c1-0.6,1.9-1.1,2.5-1.4l0,0c0.1-0.1,0.3-0.1,0.4-0.3l9.5-4.4c0.9-0.4,1.9,0,2.3,0.9c0.4,0.9,0,1.9-0.9,2.3l-8,3.6
		c0.1,0,0,0.1,0.1,0.1s0.1-0.1,0.3-0.1l9.5-4.4c0.9-0.4,1.9,0,2.3,0.9c0.4,0.9,0,1.9-0.9,2.3l-9.5,4.4l0,0c0,0.1,0,0.1,0.1,0.3
		l7.1-3.1c0.9-0.4,1.9,0,2.3,0.9c0.4,0.9,0,1.9-0.9,2.3l-1.1,0.5c0.4,0.1,0.6,0.5,0.9,0.9c0.4,0.9,0,1.9-0.9,2.3l-7.3,3.3l0,0l0,0
		l-2.4,1c-0.1,0-0.3,0.1-0.5,0.1L962,579.3z"/>
	<polygon class="st17" points="963.3,579.2 957.9,569.6 922.2,586.2 929.6,602.5 	"/>
	<path class="st2" d="M778.6,586.4h62.6V629h278v170.3H716V649L778.6,586.4z"/>
	<path class="st3" d="M841,398.3c57.3,0,114.5,0,171.8,0c16.7,76.9,33.4,153.8,50.2,230.7c-74,0-148,0-222,0
			C841,552.1,841,475.2,841,398.3z M866,423.3c0,60.2,0,120.3,0,180.5c55.3,0,110.5,0.1,165.8,0c-13-60.2-26.1-120.3-39.2-180.5
			C950.4,423.3,908.2,423.3,866,423.3z"/>
	<path class="st3 sub_one" d="M686.8,763.9l9-3c0.4-9.8,2-19.4,4.6-28.4l-8.3-1.7c-4.5-0.9-6.8-6-4.5-10l9.7-16.9
					c1.5-2.5,4.3-3.8,7.2-3.2l9.3,1.9c5.2-8.2,11.3-15.7,18.2-22.3l-6.3-5.6c-3.4-3.1-2.9-8.6,1.1-10.9l16.9-9.7
					c2.5-1.5,5.7-1.1,7.8,0.8l7.1,6.3c8.4-4.5,17.5-7.9,26.9-10.2l-2.7-8c-1.5-4.4,1.8-8.9,6.4-8.9h19.5c2.9,0,5.5,1.9,6.4,4.6l3,9
					c9.8,0.4,19.4,2,28.4,4.6l1.7-8.3c0.9-4.5,6-6.8,10-4.5l16.9,9.7c2.5,1.5,3.8,4.3,3.2,7.2l-1.9,9.3c8.2,5.2,15.7,11.3,22.3,18.2
					l5.6-6.3c3.1-3.4,8.6-2.9,10.9,1.1l9.7,16.9c1.5,2.5,1.1,5.7-0.8,7.8l-6.3,7.1c4.5,8.4,7.9,17.5,10.2,26.9l8-2.7
					c4.4-1.5,8.9,1.8,8.9,6.4v19.5c0,2.9-1.9,5.5-4.6,6.4l-9,3c-0.4,9.8-2,19.4-4.6,28.4l8.3,1.7c4.5,0.9,6.8,6,4.5,10l-9.7,16.9
					c-1.5,2.5-4.3,3.8-7.2,3.2l-9.3-1.9c-5.2,8.2-11.3,15.7-18.2,22.3l6.3,5.6c3.4,3.1,2.9,8.6-1.1,10.9l-16.9,9.7
					c-2.5,1.5-5.7,1.1-7.8-0.8l-7.1-6.3c-8.4,4.5-17.5,7.9-26.9,10.2l2.7,8c1.5,4.4-1.8,8.9-6.4,8.9h-19.5c-2.9,0-5.5-1.9-6.4-4.6
					l-3-9c-9.8-0.4-19.4-2-28.4-4.6L779,887c-0.9,4.5-6,6.8-10,4.5l-16.9-9.7c-2.5-1.5-3.8-4.3-3.2-7.2l1.9-9.3
					c-8.2-5.2-15.7-11.3-22.3-18.2l-5.6,6.3c-3.1,3.4-8.6,2.9-10.9-1.1l-9.7-16.9c-1.5-2.5-1.1-5.7,0.8-7.8l6.3-7.1
					c-4.5-8.4-7.9-17.5-10.2-26.9l-8,2.7c-4.4,1.5-8.9-1.8-8.9-6.4v-19.5C682.2,767.4,684.1,764.9,686.8,763.9L686.8,763.9z"/>
	<circle class="st1" cx="813.7" cy="765.5" r="61.8"/>
	<path class="st3 sub_two" d="M1026.2,798.1l6.7-2.2c0.3-7.3,1.4-14.4,3.4-21.1l-6.1-1.3c-3.3-0.7-5-4.4-3.3-7.4l7.2-12.5
						c1.1-1.9,3.2-2.8,5.3-2.4l6.9,1.4c3.8-6.1,8.4-11.6,13.5-16.6l-4.7-4.2c-2.6-2.3-2.1-6.4,0.8-8.1l12.5-7.2
						c1.9-1.1,4.2-0.8,5.8,0.6l5.2,4.7c6.3-3.3,13-5.9,20-7.6l-2-5.9c-1.1-3.2,1.3-6.6,4.8-6.6h14.5c2.2,0,4.1,1.4,4.8,3.4l2.2,6.7
						c7.3,0.3,14.4,1.4,21.1,3.4l1.3-6.1c0.7-3.3,4.4-5,7.4-3.3l12.5,7.2c1.9,1.1,2.8,3.2,2.4,5.3l-1.4,6.9
						c6.1,3.8,11.6,8.4,16.6,13.5l4.2-4.7c2.3-2.6,6.4-2.1,8.1,0.8l7.2,12.5c1.1,1.9,0.8,4.2-0.6,5.8l-4.7,5.3
						c3.3,6.3,5.9,13,7.6,20l5.9-2c3.2-1.1,6.6,1.3,6.6,4.8v14.5c0,2.2-1.4,4.1-3.4,4.8l-6.7,2.2c-0.3,7.3-1.4,14.4-3.4,21.1
						l6.1,1.3c3.3,0.7,5,4.4,3.3,7.4l-7.2,12.5c-1.1,1.9-3.2,2.8-5.3,2.4l-6.9-1.4c-3.8,6.1-8.4,11.6-13.5,16.6l4.7,4.2
						c2.6,2.3,2.1,6.4-0.8,8.1l-12.5,7.2c-1.9,1.1-4.2,0.8-5.8-0.6l-5.2-4.7c-6.3,3.3-13,5.9-20,7.6l2,5.9c1.1,3.2-1.3,6.6-4.8,6.6
						H1124c-2.2,0-4.1-1.4-4.8-3.4l-2.2-6.7c-7.3-0.3-14.4-1.4-21.1-3.4l-1.3,6.1c-0.7,3.3-4.4,5-7.4,3.3l-12.5-7.2
						c-1.9-1.1-2.8-3.2-2.4-5.3l1.4-6.9c-6.1-3.8-11.6-8.4-16.6-13.5l-4.2,4.7c-2.3,2.6-6.4,2.1-8.1-0.8l-7.2-12.5
						c-1.1-1.9-0.8-4.2,0.6-5.8l4.7-5.3c-3.3-6.3-5.9-13-7.6-20l-5.9,2c-3.2,1.1-6.6-1.3-6.6-4.8v-14.5
						C1022.8,800.7,1024.1,798.8,1026.2,798.1L1026.2,798.1z"/>
	<circle class="st1" cx="1120.4" cy="799.3" r="45.1"/>
	<path class="st5" d="M1015.2,749.2h-12.5v42.6h12.5V749.2z"/>
	<path class="st5" d="M990.2,749.2h-12.5v42.6h12.5V749.2z"/>
	<path class="st5" d="M965.2,749.2h-12.5v42.6h12.5V749.2z"/>
	<path class="st3" d="M803.6,336h-37.6l37.6,250.4h37.6L803.6,336z"/>
	<path class="st1" d="M714.6,428.7l13.9-92.7h37.6l-13.9,92.7H714.6z"/>
	<path class="st6" d="M694.7,428.7h65.1l12.5,12.5V500l-12.5,12.5h-32.6v43.8l17.5,20h-30l-32.6-45.1v-90.1L694.7,428.7z"/>
	<path class="st2" d="M812.4,280.9h-92.7V336h92.7V280.9z"/>
    <g class="bucket">
        <path class="st1" d="M1443.4,666.6h37.6l-15-27.5h-22.5V666.6z"/>
        <path class="st3" d="M1458.5,666.6h-107.7l-30.1-60.1V498.8l30-30h37.6v102.7h22.5L1458.5,666.6z"/>
        <path class="st5" d="M1115.4,547.6h205.4l0.2,40.1h-188.1l-93.9,93.9v12.5c0,11.1-9,20-20,20s-20-9-20-20v-30L1115.4,547.6z"/>
        <circle class="st3" cx="1019" cy="694.1" r="7.5"/>
    </g>
</g>
</svg>