<svg version="1.1" xmlns="http://www.w3.org/2000/svg" xmlns:xlink="http://www.w3.org/1999/xlink" x="0px" y="0px" viewBox="0 0 2000 1000" style="enable-background:new 0 0 2000 1000;" xml:space="preserve">
<style type="text/css">
	.st0{fill:#C6C6C6;}
	.st1{fill:#AE7D4D;}
	.st2{fill:#976342;}
	.st3{fill:#EFBF33;}
	.st4{fill:#E98704;}
	.st5{fill:#FFDC64;}
	.st6{fill:#FFC850;}
	.st7{fill:#E1A546;}
	.st8{fill:#FFF082;}
	.st9{fill:#5B5D6E;}
	.st10{fill:#C7CFE2;}
	.st11{fill:#AFB9D2;}
	.st12{fill:#FFFABE;}
	.st13{fill:#FFFFFF;}
	.st14{fill:none;stroke:#2E3552;stroke-width:8;stroke-linecap:round;stroke-linejoin:round;}
	.st15{fill:none;stroke:#2E3552;stroke-width:8;stroke-linecap:round;stroke-linejoin:round;}
	.st16{fill:#895F27;}
	.st17{fill:#C48735;}
	.st18{fill:#ED986D;}
	.st19{fill:#F79673;}
	.st20{fill:#AB6624;}
	.st21{fill:#FCA78D;}
	.st22{fill:#2F3F60;}
	.st23{fill:#CCC5BC;}
	.st24{fill:#242D22;}
	.st25{fill:#D8AC01;}
	.st26{fill:#DA9836;}
	.st27{fill:none;stroke:#0A0A0A;stroke-width:12;stroke-linecap:round;stroke-linejoin:round;stroke-miterlimit:10;}
	.st28{clip-path:url(#SVGID_2_);}

	@keyframes vib {

		50% {

            transform: translateY(8px);
		}
	}

	.sub_one {

		animation: vib 1s linear infinite;
	}

    @keyframes move_left {

    	100% {

            opacity: 0;
    		transform: translateX(-200px);
    	}
    }

    .smog {

    	animation: move_left 1.5s linear infinite;
    }

    @keyframes offset {

    	100% {

    		stroke-dashoffset: 198;
    	}
    }

    .sub_two {

    	stroke-dasharray: 198;
    	stroke-dashoffset: -198;
    	animation: offset .5s linear infinite;
    }

    @keyframes pulsating_effect {

        50% {

           opacity: .8;
        }

        100% {

           opacity: 0;
           transform: scale(1.08);
        }
    }

    .bg path:nth-of-type(1) {

        opacity: 0;
        transform-origin: 971px 630px;
        animation: pulsating_effect 1.5s linear infinite;
    }

    .bg path:nth-of-type(2) {

        opacity: 0;
        transform-origin: 971px 630px;
        animation: pulsating_effect 1.5s .75s linear infinite;
    }
</style>
<g class="bg">
	<path fill="#EBF3FA" d="M180.7,895c0,0-248.3-201.7-103.2-429.4c93.6-146.9,376.8-158.8,527.2-69.1c64,38.2,220.6,163.3,350-122.6   C1106-60.3,1985.2,181.8,1818.3,541c-102,219.5,289.7,156.1,102.1,354H180.7z"/>
    <path fill="#EBF3FA" d="M180.7,895c0,0-248.3-201.7-103.2-429.4c93.6-146.9,376.8-158.8,527.2-69.1c64,38.2,220.6,163.3,350-122.6   C1106-60.3,1985.2,181.8,1818.3,541c-102,219.5,289.7,156.1,102.1,354H180.7z"/>
</g>
<g>
    <path fill="#EBF3FA" d="M180.7,895c0,0-248.3-201.7-103.2-429.4c93.6-146.9,376.8-158.8,527.2-69.1c64,38.2,220.6,163.3,350-122.6   C1106-60.3,1985.2,181.8,1818.3,541c-102,219.5,289.7,156.1,102.1,354H180.7z"/>
</g>
<g class="smog">
	<circle class="st0" cx="568.7" cy="803.6" r="12.7"/>
	<circle class="st0" cx="673.2" cy="803.6" r="7.9"/>
</g>
<g class="sub_one">
  <g>
	<path class="st1" d="M993.6,589.5c0,10.4-8.5,19-19,19H809.1c-10.4,0-19-8.5-19-19c0-10.4,8.5-19,19-19c0.2,0,0.5,0,0.6,0
				c-2.6-10.1,3.4-20.4,13.5-23c3.2-0.8,6.6-0.8,9.8,0.1c2.3-15.6,16.6-26.2,32.1-24.1c14,2,24.3,14,24.3,28h9.4v23.6h33.2
				c0-10.4,8.5-19,19-19c8.9,0,16.6,6.2,18.5,14.9c10.1-2.8,20.6,3,23.4,13.1C993.4,586,993.6,587.7,993.6,589.5z"/>
	<path class="st2" d="M827.8,568.2l-6.2,7.2c-3.3-3-7.5-4.5-11.9-4.8c-0.8-3.1-0.8-6.4,0-9.4C816.4,561.2,822.8,563.7,827.8,568.2
				z"/>
	<path class="st2" d="M852.6,551.6l-8.2,4.8c-2.5-4.3-6.6-7.5-11.4-8.7c0.5-3.2,1.5-6.2,2.8-9
				C842.9,540.6,848.9,545.2,852.6,551.6z"/>
    <path class="st2" d="M969.5,571.2c-4.8,1.4-8.7,4.5-11.2,8.7l-8.2-4.8c3.4-5.8,8.7-10.2,15.1-12.5
				C967.4,565.1,968.9,568,969.5,571.2L969.5,571.2z"/>
	<path class="st3" d="M936.8,537.4v37.8c0,7.8-10.6,14.2-23.6,14.2c-13.1,0-23.6-6.4-23.6-14.2v-37.8H936.8z"/>
	<ellipse class="st4" cx="913.2" cy="537.4" rx="23.6" ry="14.2"/>
	<path class="st5" d="M1385,608.1l-128.6-21.3L1194.1,425h-149.3c-13.7,0-25,11.1-25,25v136.9H646.3c-6.9,0-12.4,5.7-12.4,12.4
			v174.4c0,13.7,11.1,25,25,25l734.6-0.1c6.9,0,12.4-5.7,12.4-12.4V632.8C1405.9,620.6,1397,610.2,1385,608.1z"/>
	<path class="st6" d="M633.9,736.2h772V786c0,6.9-5.7,12.4-12.4,12.4H658.9c-13.7,0-25-11.1-25-25V736.2z"/>
	<path class="st7" d="M907,798.4c-6.1-56-53.6-99.6-111.3-99.6c-57.6,0-105.1,43.5-111.3,99.6H907z"/>
	<path class="st7" d="M1392.6,798.4c-6.1-56-53.6-99.6-111.3-99.6c-57.6,0-105.1,43.5-111.3,99.6H1392.6z"/>
	<path class="st8" d="M1069.7,636.6h336.2v-3.9c0-12.1-8.9-22.5-20.9-24.5l-128.2-21.3h-187.1c-13.7,0-25,11.1-25,25l0,0
			C1044.8,625.5,1055.9,636.6,1069.7,636.6z"/>
	<circle class="st9" cx="1281.3" cy="810.8" r="87.2"/>
	<circle class="st10" cx="1281.3" cy="810.8" r="49.6"/>
	<circle class="st11" cx="1281.3" cy="810.8" r="24.9"/>
	<circle class="st9" cx="795.7" cy="810.8" r="87.2"/>
	<ellipse transform="matrix(0.1602 -0.9871 0.9871 0.1602 -132.1105 1466.4016)" class="st10" cx="795.7" cy="810.8" rx="49.6" ry="49.6"/>
	<path class="st12" d="M1356,649v25c0,13.7,11.1,25,25,25h25v-62.2h-37.4C1361.7,636.6,1356,642.2,1356,649z"/>
	<circle class="st11" cx="795.7" cy="810.8" r="24.9"/>
	<path class="st8" d="M1206.7,449.8h-149.4c-6.9,0-12.4-5.7-12.4-12.4c0-6.9,5.7-12.4,12.4-12.4h149.4c6.9,0,12.4,5.7,12.4,12.4
			C1219.1,444.3,1213.5,449.8,1206.7,449.8z"/>
	<path class="st13" d="M1107,586.8h149.4l-43.1-112.1h-118.8c-6.9,0-12.4,5.7-12.4,12.4v74.7C1082.1,575.5,1093.3,586.8,1107,586.8
			z"/>
	<path class="st7" d="M1001.9,798.4h42.5c-13.6-0.2-24.4-11.2-24.4-24.9V586.8h-25v186.8C995,782.6,997.6,791.2,1001.9,798.4z"/>
	<path class="st8" d="M957.7,636.6H671.4c-6.9,0-12.4-5.7-12.4-12.4l0,0c0-6.9,5.7-12.4,12.4-12.4h286.4c6.9,0,12.4,5.7,12.4,12.4
			l0,0C970.1,631.1,964.4,636.6,957.7,636.6z"/>
  </g>
  <g>
    <g>
        <defs>
            <path id="SVGID_1_" d="M1107,586.8h149.4l-43.1-112.1h-118.8c-6.9,0-12.4,5.7-12.4,12.4v74.7C1082.1,575.5,1093.3,586.8,1107,586.8    z"/>
        </defs>
        <clipPath id="SVGID_2_">
            <use xlink:href="#SVGID_1_"  style="overflow:visible;"/>
        </clipPath>
    </g>
    <g class="st28">
	    <path class="st16" d="M1172.3,573.6l-7.1-5c2.4-1.1,4.1-3.3,5.3-4.4l3.7-7.9c0.2-0.7,1.1-1.1,1.8-0.9l0,0c0.7,0.2,1.1,1.1,0.9,1.8
			l-0.6,2c0.7-0.6,1.4-1,1.9-1.4l0,0c0.1-0.1,0.2-0.2,0.3-0.3l7.1-4.3c0.7-0.4,1.5-0.2,1.9,0.5s0.2,1.5-0.5,1.9l-6,3.7
			c0,0,0,0,0.1,0.1c0.1-0.1,0.1-0.1,0.2-0.2l7.1-4.3c0.7-0.4,1.5-0.2,1.9,0.5s0.2,1.5-0.5,1.9l-7.1,4.3l0,0c0,0.1,0.1,0.1,0.1,0.2
			l5.3-3.2c0.7-0.4,1.5-0.2,1.9,0.5c0.4,0.7,0.2,1.5-0.5,1.9l-0.8,0.5c0.3,0.1,0.5,0.3,0.7,0.6c0.4,0.7,0.2,1.5-0.5,1.9l-5.4,3.2
			l0,0l0,0l-1.8,1.1c-0.1,0.1-0.2,0.1-0.3,0.2L1172.3,573.6z"/>
	    <polygon class="st17" points="1170,575.8 1171.4,566.6 1140.2,574.7 1145.6,587.1 		"/>
	    <polygon class="st16" points="1172.3,573.6 1158.1,584.5 1151.7,570.4 1170.7,564.4 		"/>
	    <polygon class="st17" points="1144.3,584 1151.1,573.1 1134.6,543.7 1125.4,554 	"/>
	    <polygon class="st18" points="1127.1,584.5 1137.9,584.7 1130.4,554.7 1119.5,554.4 	"/>
	    <path class="st19" d="M1116,530.8c0.1-0.4,4.3-29.1,4.3-29.1l10.2,19.8l-1.8,11.9L1116,530.8z"/>
	    <path class="st20" d="M1120.1,484.9c0,0-0.2,11-0.6,18.8c-0.4,6.9,0.8,9.6,0.8,9.6l-3.4,10.4c0,0-2.5-5.9-6-9.1
		C1104,508.1,1097.9,482.1,1120.1,484.9z"/>
	    <path class="st21" d="M1137.6,487.8c0,0,4.3,9.2,3.6,11.1c-0.6,1.9-0.2,2.5-0.2,2.5s1.1,5,4.4,8c1.4,1.3-2.2,3.7-2.8,6.4
		c-0.3,1.3-0.1,5-0.1,5s-0.7,7.8-14.4,3.2c-6.9-2.4-7.9-5.4-10.6-10.8c-0.8-1.7,1.9-5.7,1-7.8c-2.2-5.7-5.7-12-5.7-12
		S1125.7,482.4,1137.6,487.8z"/>
	    <path class="st22" d="M1116.5,525.9c-21,15.8-12.9,42.3-16.4,71.4l40.5,9.3c0.8-27.8,0-58.2-11.2-74.1L1116.5,525.9z"/>
	    <path class="st20" d="M1139.6,496.3c0,0,1.6-10.8-7.9-13.9c-12.4-4.1-17.5,5.2-19.2,6.6C1110.7,490.4,1102.3,514.1,1139.6,496.3z"
		/>
	    <path class="st20" d="M1129.8,486.6c0,0,2,7.2-1.3,14.8c-3.2,7.6-3.5,12.6-3.5,12.6l-2.5,0.2c0,0-3.5,2.1-8.4,0.1
		c-0.6-0.2,1.5,1.6,1,1.2C1107.1,509.5,1108.7,478.2,1129.8,486.6z"/>
	    <path class="st23" d="M1104,503.7l37.2-6.1l-0.6-3.7c-1.6-9.8-10.9-16.4-20.7-14.8l-0.4,0.1c-10.5,1.7-17.6,11.7-15.9,22.1
		L1104,503.7z"/>
	    <path class="st23" d="M1118,501l29.6-4.4c0.8-0.1,1.4-0.9,1.2-1.7l-0.1-0.6c-0.1-0.8-0.9-1.4-1.7-1.2l-29.6,4.4
		c-0.8,0.1-1.4,0.9-1.2,1.7l0.1,0.6C1116.4,500.6,1117.2,501.1,1118,501z"/>
	    <path class="st24" d="M1136.4,505.9c0.2,1.4,0.9,2.5,1.6,2.4c0.7-0.1,1.1-1.3,0.9-2.7c-0.2-1.4-0.9-2.5-1.6-2.4
		C1136.6,503.3,1136.2,504.5,1136.4,505.9z"/>
	    <path class="st24" d="M1140,501.2c-1.5-1.3-4.8-0.8-5.7,0.9c-0.4,0.7,0.6,1.6,1.1,0.8c0.7-1.1,2.8-1.5,3.9-0.7
		C1139.9,502.9,1140.7,501.8,1140,501.2L1140,501.2z"/>
	    <path class="st13" d="M1135.3,515.8l5.2-0.2l-0.4,4.4C1136.6,520.1,1135.3,515.8,1135.3,515.8z"/>
	    <path class="st21" d="M1117.1,513.9c1.7,2.3,4.3,3.3,5.7,2.2c1.5-1.1,1.3-3.8-0.4-6.1c-1.7-2.3-4.3-3.3-5.7-2.2
		C1115.2,508.8,1115.4,511.6,1117.1,513.9z"/>
	    <path class="st25" d="M1140.7,573.8c-1.3,2.3-39.7-3.1-39.5-5.6l0.4-5.4c13.8,5.2,26.7,7.6,38.3,6.2L1140.7,573.8L1140.7,573.8z"/>
	    <path class="st25" d="M1140.5,606.7c-1.7,3.2-41.6-1.6-40.9-5l0.4-5.4c13.4,5.9,27,8,40.5,5.8L1140.5,606.7z"/>
	    <path class="st26" d="M1126.7,606.6l14.1-5l-19.1-59.3c-3.1-7.1-17-5-14.5,3.8L1126.7,606.6z"/>
	    <path class="st17" d="M1116.5,525.9l12.8,6.6c0,0,4.5,6.2,5.3,11.1l-21.5-15L1116.5,525.9z"/>
	    <line class="st27" x1="1231.8" y1="595.3" x2="1188.2" y2="566.1"/>
	    <line class="st27" x1="1196.5" y1="541.4" x2="1170.9" y2="581.4"/>
	    <path class="st16" d="M1165.4,583.7l-6.5-5.8c2.5-0.8,4.5-2.8,5.8-3.8l4.7-7.4c0.3-0.7,1.1-1,1.9-0.7l0,0c0.7,0.3,1,1.1,0.7,1.9
			l-0.9,2c0.8-0.5,1.5-0.9,2-1.1l0,0c0.1-0.1,0.2-0.1,0.3-0.2l7.6-3.5c0.7-0.3,1.5,0,1.8,0.7s0,1.5-0.7,1.8l-6.4,2.9
			c0.1,0,0,0.1,0.1,0.1c0.1,0,0.1-0.1,0.2-0.1l7.6-3.5c0.7-0.3,1.5,0,1.8,0.7c0.3,0.7,0,1.5-0.7,1.8l-7.6,3.5l0,0
			c0,0.1,0,0.1,0.1,0.2l5.7-2.5c0.7-0.3,1.5,0,1.8,0.7c0.3,0.7,0,1.5-0.7,1.8l-0.9,0.4c0.3,0.1,0.5,0.4,0.7,0.7
			c0.3,0.7,0,1.5-0.7,1.8l-5.8,2.6l0,0l0,0l-1.9,0.8c-0.1,0-0.2,0.1-0.4,0.1L1165.4,583.7z"/>
	    <polygon class="st26" points="1166.4,583.6 1162.1,575.9 1133.6,589.2 1139.5,602.2 		"/>
	</g>
  </g>
</g>
<g class="sub_two">
    <line class="st14" x1="0" y1="902" x2="2000" y2="902"/>
</g>
</svg>