<?xml version="1.0" encoding="utf-8"?>
<!-- Generator: Adobe Illustrator 22.0.1, SVG Export Plug-In . SVG Version: 6.00 Build 0)  -->
<svg version="1.1" id="Layer_1" xmlns="http://www.w3.org/2000/svg" xmlns:xlink="http://www.w3.org/1999/xlink" x="0px" y="0px"
	 viewBox="0 0 536 563.1" style="enable-background:new 0 0 536 563.1;" xml:space="preserve">
<style type="text/css">
	.st0{fill:url(#SVGID_1_);}
	.st1{fill:url(#SVGID_2_);}
	.st2{fill:url(#SVGID_3_);}
	.st3{fill:url(#SVGID_4_);}
	.st4{fill:url(#SVGID_5_);}
	.st5{fill:url(#SVGID_6_);}
	.st6{fill:url(#SVGID_7_);}
	.st7{fill:url(#SVGID_8_);}
	.st8{fill:url(#SVGID_9_);}
	.st9{fill:url(#SVGID_10_);}
	.st10{fill:url(#SVGID_11_);}
	.st11{fill:url(#SVGID_12_);}
	.st12{fill:url(#SVGID_13_);}
	.st13{fill:url(#SVGID_14_);}
	.st14{fill:url(#SVGID_15_);}
	.st15{fill:url(#SVGID_16_);}
	.st16{fill:url(#SVGID_17_);}
	.st17{fill:url(#SVGID_18_);}
	.st18{fill:url(#SVGID_19_);}
	.st19{fill:url(#SVGID_20_);}
	.st20{fill:url(#SVGID_21_);}
</style>
<g>
	
		<linearGradient id="SVGID_1_" gradientUnits="userSpaceOnUse" x1="372.9355" y1="-408.6025" x2="139.2012" y2="-273.6559" gradientTransform="matrix(1 0 0 -1 0 -123.6281)">
		<stop  offset="0" style="stop-color:#2E79FF"/>
		<stop  offset="0.75" style="stop-color:#3FEF8A"/>
	</linearGradient>
	<path class="st0" d="M150.1,186.1L150.1,186.1c-1.5,1.5-3.8,1.5-5.1,0L1.1,45.6c-1.5-1.5-1.5-3.8,0-5.1l0,0c1.5-1.5,3.8-1.5,5.1,0
		L150,181.1C151.4,182.3,151.4,184.7,150.1,186.1z"/>
	
		<linearGradient id="SVGID_2_" gradientUnits="userSpaceOnUse" x1="387.6701" y1="-383.0815" x2="153.9357" y2="-248.1349" gradientTransform="matrix(1 0 0 -1 0 -123.6281)">
		<stop  offset="0" style="stop-color:#2E79FF"/>
		<stop  offset="0.75" style="stop-color:#3FEF8A"/>
	</linearGradient>
	<path class="st1" d="M101.7,68.1c-1.5-1.5-3.8-1.3-5.1,0c-1.3,1.3-1.3,3.8,0,5.1l110.8,108.5c2.8-0.6,5.5-1.3,8.4-2L101.7,68.1z"/>
	
		<linearGradient id="SVGID_3_" gradientUnits="userSpaceOnUse" x1="342.6303" y1="-461.0928" x2="108.8959" y2="-326.1461" gradientTransform="matrix(1 0 0 -1 0 -123.6281)">
		<stop  offset="0" style="stop-color:#2E79FF"/>
		<stop  offset="0.75" style="stop-color:#3FEF8A"/>
	</linearGradient>
	<path class="st2" d="M33.5,140.4c-1.5-1.5-3.8-1.3-5.1,0s-1.3,3.8,0,5.1l73.2,71.6c1.7-1.7,3.5-3.4,5-5.4L33.5,140.4z"/>
	
		<linearGradient id="SVGID_4_" gradientUnits="userSpaceOnUse" x1="310.3383" y1="-517.0242" x2="76.6039" y2="-382.0776" gradientTransform="matrix(1 0 0 -1 0 -123.6281)">
		<stop  offset="0" style="stop-color:#2E79FF"/>
		<stop  offset="0.75" style="stop-color:#3FEF8A"/>
	</linearGradient>
	<path class="st3" d="M56.9,237.8c-1.5-1.5-3.8-1.3-5.1,0c-1.3,1.3-1.3,3.8,0,5.1l26.6,26c0.6-2.9,0.9-6,1.3-9.1L56.9,237.8z"/>
	
		<linearGradient id="SVGID_5_" gradientUnits="userSpaceOnUse" x1="402.5288" y1="-357.3456" x2="168.7944" y2="-222.3989" gradientTransform="matrix(1 0 0 -1 0 -123.6281)">
		<stop  offset="0" style="stop-color:#2E79FF"/>
		<stop  offset="0.75" style="stop-color:#3FEF8A"/>
	</linearGradient>
	<path class="st4" d="M195.1,93c-1.5-1.5-3.8-1.3-5.1,0c-1.3,1.3-1.3,3.8,0,5.1l84.8,83c3.5,0,7,0,10.5,0L195.1,93z"/>
	
		<linearGradient id="SVGID_6_" gradientUnits="userSpaceOnUse" x1="270.2924" y1="-586.3857" x2="36.558" y2="-451.4391" gradientTransform="matrix(1 0 0 -1 0 -123.6281)">
		<stop  offset="0" style="stop-color:#2E79FF"/>
		<stop  offset="0.75" style="stop-color:#3FEF8A"/>
	</linearGradient>
	<path class="st5" d="M341.8,517.1L255,432.3c-1.7,1.7-3.5,3.4-5.3,5.1l86.9,85.1c1.5,1.5,3.8,1.3,5.1,0
		C343.2,520.9,343.2,518.6,341.8,517.1z"/>
	
		<linearGradient id="SVGID_7_" gradientUnits="userSpaceOnUse" x1="292.0557" y1="-548.6906" x2="58.3213" y2="-413.744" gradientTransform="matrix(1 0 0 -1 0 -123.6281)">
		<stop  offset="0" style="stop-color:#2E79FF"/>
		<stop  offset="0.75" style="stop-color:#3FEF8A"/>
	</linearGradient>
	<path class="st6" d="M439.2,535.7L290.7,390.3c-3.4,0.4-6.9,0.6-10.2,0.2c0.1,0.1,0.2,0.4,0.4,0.5l153.1,149.8
		c1.5,1.5,3.8,1.3,5.1,0l0,0C440.7,539.4,440.7,537.1,439.2,535.7z"/>
	
		<linearGradient id="SVGID_8_" gradientUnits="userSpaceOnUse" x1="304.1606" y1="-527.7242" x2="70.4262" y2="-392.7776" gradientTransform="matrix(1 0 0 -1 0 -123.6281)">
		<stop  offset="0" style="stop-color:#2E79FF"/>
		<stop  offset="0.75" style="stop-color:#3FEF8A"/>
	</linearGradient>
	<path class="st7" d="M534.9,556.8l-118-115.4c-2.4,1.1-4.9,2.1-7.2,3.2l120.1,117.5c1.5,1.5,3.8,1.3,5.1,0
		C536.3,560.7,536.4,558.3,534.9,556.8z"/>
	
		<linearGradient id="SVGID_9_" gradientUnits="userSpaceOnUse" x1="331.9308" y1="-479.6249" x2="98.1964" y2="-344.6783" gradientTransform="matrix(1 0 0 -1 0 -123.6281)">
		<stop  offset="0" style="stop-color:#2E79FF"/>
		<stop  offset="0.75" style="stop-color:#3FEF8A"/>
	</linearGradient>
	<path class="st8" d="M509.8,466l-57-55.8c-3.4,0.2-6.7,0.4-10.3,0.2l62.2,60.8c1.5,1.5,3.8,1.3,5.1,0
		C511.2,469.9,511.3,467.4,509.8,466z"/>
	
		<linearGradient id="SVGID_10_" gradientUnits="userSpaceOnUse" x1="405.934" y1="-351.4476" x2="172.1996" y2="-216.501" gradientTransform="matrix(1 0 0 -1 0 -123.6281)">
		<stop  offset="0" style="stop-color:#2E79FF"/>
		<stop  offset="0.75" style="stop-color:#3FEF8A"/>
	</linearGradient>
	<path class="st9" d="M412.2,2.9c4.5-4.4,12.5-3.5,16.6,1.1c11.8,11.9,23.7,23.4,35.5,35.4c3.2,3.1,5,7.3,4.4,11.8
		c-0.4,6.2-5.8,10.3-9.4,14.8c-3.5,3.8-6.4,8.3-10.6,11.4c-4.2,2.4-10,2.1-13.6-1.2c-7.2-6.6-13.7-14.1-21.1-20.6
		c-8-6.4-20.4,7-13.5,14.6c10.3,10.6,20.9,20.8,31.2,31.5c11.1,10.3,12,29.3,2.2,40.8c-24.5,28.3-49.3,56.1-73.8,84.5
		c-5.9,6.1-11.1,13.7-11.1,22.6c0.1,33.1,0,66.2,0.1,99.3c-0.1,6.6,4.2,12.2,8.8,16.5c2.3,2,4.5,5.6,8.1,4.7
		c3.5-0.9,3.9-4.9,3.8-7.8c-0.5-34.3-0.1-68.6,0-102.8c0.4-14.2,12.5-27.7,26.9-27.9c16.6-0.1,33.4-0.4,50.1,0
		c10,0.5,19.5,5.4,26.1,12.9c3.5,4,6,8.8,8.6,13.3c7.6,13.2,15.1,26.6,22.8,39.7c3.9,6.6,6.1,14.2,6.1,21.9c0,20.8,0,41.6,0,62.4
		c0.4,12.9-8.4,24.8-20.7,28.6c-4.8,1.5-9.8,1.3-14.8,1.5c-11.6,0-23.1,0-34.8-0.1c-2.4,12.6-9.1,24.6-19.6,32.1
		c-15.5,11.4-38.3,10.8-53.5-1c-11.6-8.7-18.6-23.4-17.5-37.8c0.1-4.5,1.6-9.1,1.2-13.6c-0.4-4-2.7-7.3-5.4-10.2
		c-17.4-17.7-34.6-35.6-51.9-53.5c-3.7-4-8-7.6-10.8-12.4c-6.1-10.8-5.1-25.2,3.1-34.6c43-49.3,86.2-98.4,129.1-147.6
		c2.7-3.1,6.5-6.5,5.4-11c0.1-3.3-4-6.4-6.7-3.8c-6,5.9-11,12.6-16.8,18.7c-3.5,4-10.5,3.9-14.3,0.1c-16.4-15.8-32.3-32.2-48.5-48.2
		c-3.5-3.3-5.1-8.6-3.3-13.2c1.3-3.7,4.7-6,7.3-8.4C363,45.9,387.4,24.3,412.2,2.9z M436,250.9c-3.4,1-6.1,4.4-6,8.1
		c-0.1,17.1-0.5,34.4,0,51.5c-0.4,5.1,3.9,10.3,9.2,10.4c13.1,0.5,26.3,0.4,39.4,0.1c5.5,0,10.3-5.9,9.1-11.3
		c-0.6-2.1-1.7-3.9-2.8-5.8c-8-13.3-15.5-26.9-23.3-40.5c-2.7-4.5-6-9.2-11.1-11C445.9,250.6,440.8,250,436,250.9z M386.2,370
		c-11.4,2.8-21.1,11.4-25.2,22.3c-4.4,11.4-2.6,24.8,4.8,34.5c9.9,14,30.2,18.7,45.3,10.8c15.8-7.6,24-27.3,18.1-43.8
		C423.9,376.2,404,365.2,386.2,370z"/>
	
		<linearGradient id="SVGID_11_" gradientUnits="userSpaceOnUse" x1="438.033" y1="-295.8504" x2="204.2986" y2="-160.9038" gradientTransform="matrix(1 0 0 -1 0 -123.6281)">
		<stop  offset="0" style="stop-color:#2E79FF"/>
		<stop  offset="0.75" style="stop-color:#3FEF8A"/>
	</linearGradient>
	<path class="st10" d="M324.8,100.4c6.2-3.5,14.9,2,14.4,9.2c0.1,7.6-9.4,12.5-15.5,8C317.3,113.8,318,103.4,324.8,100.4z
		 M327,104.9c-3.1,1.3-3.8,6.1-1.1,8.3c2.4,2.4,7.3,1.1,8.2-2.3C335.5,106.8,330.5,102.7,327,104.9z"/>
	
		<linearGradient id="SVGID_12_" gradientUnits="userSpaceOnUse" x1="419.2039" y1="-328.4634" x2="185.4695" y2="-193.5168" gradientTransform="matrix(1 0 0 -1 0 -123.6281)">
		<stop  offset="0" style="stop-color:#2E79FF"/>
		<stop  offset="0.75" style="stop-color:#3FEF8A"/>
	</linearGradient>
	<path class="st11" d="M285.6,120c7-2.7,14.9,4.3,13,11.6c-1.2,7.2-11,10.4-16.3,5.4C276.4,132.5,278.5,122.2,285.6,120z
		 M286.8,124.9c-3.4,1.3-4,6.6-1.1,8.6c2.7,2.3,7.6,0.5,8-3.1C294.8,126.6,290.2,123.2,286.8,124.9z"/>
	
		<linearGradient id="SVGID_13_" gradientUnits="userSpaceOnUse" x1="434.311" y1="-302.2972" x2="200.5766" y2="-167.3506" gradientTransform="matrix(1 0 0 -1 0 -123.6281)">
		<stop  offset="0" style="stop-color:#2E79FF"/>
		<stop  offset="0.75" style="stop-color:#3FEF8A"/>
	</linearGradient>
	<path class="st12" d="M346.7,119.9c6.9-2.1,14.2,4.7,12.5,11.6c-1.2,7.5-11.6,10.6-16.8,5.1C336.9,131.8,339.5,121.5,346.7,119.9z
		 M346.9,125.1c-3.2,1.7-3.4,6.9-0.2,8.7c3.1,2.2,8.1-0.5,7.8-4.4C354.4,125.8,350,123.2,346.9,125.1z"/>
	
		<linearGradient id="SVGID_14_" gradientUnits="userSpaceOnUse" x1="422.1823" y1="-323.3046" x2="188.448" y2="-188.358" gradientTransform="matrix(1 0 0 -1 0 -123.6281)">
		<stop  offset="0" style="stop-color:#2E79FF"/>
		<stop  offset="0.75" style="stop-color:#3FEF8A"/>
	</linearGradient>
	<path class="st13" d="M314.8,130.8c7.2-3.5,16,4,13.6,11.8c-1.6,7-11,9.7-16.2,4.9C306.6,143,308.2,133.4,314.8,130.8z
		 M316.1,135.7c-2.9,1.7-3.2,6.4-0.4,8.2c2.9,2.6,8.1,0.1,8.1-3.7C324.1,136.4,319.3,133.4,316.1,135.7z"/>
	
		<linearGradient id="SVGID_15_" gradientUnits="userSpaceOnUse" x1="408.3534" y1="-347.257" x2="174.619" y2="-212.3104" gradientTransform="matrix(1 0 0 -1 0 -123.6281)">
		<stop  offset="0" style="stop-color:#2E79FF"/>
		<stop  offset="0.75" style="stop-color:#3FEF8A"/>
	</linearGradient>
	<path class="st14" d="M295.4,150.8c7.3-2.8,15.5,5,12.7,12.5c-1.8,7.1-12,9.3-16.8,3.8C286.3,162.1,288.6,152.7,295.4,150.8z
		 M296.7,155.5c-3.5,1.1-4.3,6.5-1.3,8.6c2.7,2.4,7.7,0.6,8.1-3.1C304.4,157.5,300,153.8,296.7,155.5z"/>
	
		<linearGradient id="SVGID_16_" gradientUnits="userSpaceOnUse" x1="418.7715" y1="-329.2123" x2="185.0371" y2="-194.2657" gradientTransform="matrix(1 0 0 -1 0 -123.6281)">
		<stop  offset="0" style="stop-color:#2E79FF"/>
		<stop  offset="0.75" style="stop-color:#3FEF8A"/>
	</linearGradient>
	<path class="st15" d="M334.4,150.5c5.1-2.6,12.2,0.1,13.8,5.6c2,5.3-1.5,11.8-7,13c-5.4,1.5-11.6-2.4-12.2-8.1
		C328.3,156.9,330.6,152.4,334.4,150.5z M336.6,154.9c-3.4,1.5-3.7,7-0.5,8.8c2.9,2.1,7.6-0.2,7.7-3.8
		C344.5,156.3,339.9,153.1,336.6,154.9z"/>
	
		<linearGradient id="SVGID_17_" gradientUnits="userSpaceOnUse" x1="325.4397" y1="-491.2455" x2="91.5586" y2="-356.2143" gradientTransform="matrix(1 0 0 -1 0 -123.6281)">
		<stop  offset="0" style="stop-color:#2E79FF"/>
		<stop  offset="0.75" style="stop-color:#3FEF8A"/>
	</linearGradient>
	<path class="st16" d="M117.4,187.9c1.8-3.3,4.4-7.1,8.6-7.2c10.2-0.7,20.4-0.5,30.6-0.2c5.8,0,10.5,5.5,10,11.1
		c-0.5,3.8-1.7,7.5-2.7,11.1c-15.1,55.2-29.4,110.7-44.6,165.9c-0.9,1.8-0.4,4,1.7,4.8c3.5-1,6.2-3.9,9.4-5.6
		c3.5-2.3,7.8-3.5,10.8-6.6c2.4-3.1,2.9-7,4-10.6c14.1-51.4,27.4-103.2,41.4-154.6c1.1-5.3,3.8-10.4,8.6-13.1
		c5.3-3.4,11.8-2.6,17.6-2.6c38.8,0,77.5,0,116.3,0c4.7-0.1,8.7,4.4,8.1,9.1c-0.2,2.4-1.8,4.4-3.3,6.1
		c-21.1,24.1-42.4,48.1-63.3,72.3c-15.4,17.5-15.8,46.3-0.5,64c13.8,15.4,28.8,30,43,45c5,4.9,1.2,14.7-5.9,14.8
		c-13.6,0.2-27.2,0-40.8,0.1c3.2,12.6,3.2,26.8-3.9,38.2c-9.9,17.3-31.9,25.8-51,20.4c-9.2-2.3-16.6-8.6-23.5-14.9
		c-7.1,7.6-16,14-26.4,15.7c-16.3,3.1-34-3.2-44.3-16.3c-9.4-12-11.8-28.4-7.5-42.8c-10.5,0.7-21.4-6-23.7-16.6
		c-4.7-21.7-8.8-43.6-13.2-65.2c-1.3-6.7-3.1-13.3-3.1-20.2c-0.2-9.9,2.2-19.8,7-28.5C90.1,236.6,104.1,212.5,117.4,187.9z
		 M132.5,376.9c-14,8.9-20.1,28.2-13.6,43.6c6.2,16.5,25.7,26.4,42.7,21.7c12.6-3.1,22.6-13.5,26.2-25.8c4.2,14.4,17.3,26,32.4,26.8
		c16.8,1.7,33.5-10,37.8-26.2c4.3-14.4-1.6-31.1-14.1-39.5c-11.3-8.1-27.3-8.7-39-1.6c-8.3,4.8-14.3,13.1-16.9,22.4
		c-2.1-6.6-5.5-13-10.6-17.7C165.4,369.1,145.9,367.6,132.5,376.9z"/>
	
		<linearGradient id="SVGID_18_" gradientUnits="userSpaceOnUse" x1="431.0521" y1="-307.9417" x2="197.3177" y2="-172.9951" gradientTransform="matrix(1 0 0 -1 0 -123.6281)">
		<stop  offset="0" style="stop-color:#2E79FF"/>
		<stop  offset="0.75" style="stop-color:#3FEF8A"/>
	</linearGradient>
	<path class="st17" d="M426.5,181.5c1.8-1.7,4.4-1.1,6.7-1.2c9.8,0.2,19.7-0.9,29.4,0.7c8.7,3.2,15.5,9.7,23.4,14.4
		c5,3.4,11.3,6,14,11.8c2.6,5.6-2.1,12.5-8,13.2c-2.8,0.5-5.5-0.9-8-2.2c-7.7-4.4-14.7-9.9-22-14.7c-2-1.2-4-2.6-6.5-2.8
		c-11-1.1-22.2-0.2-33.3-0.4c-2.9,0.2-5.5-2.1-5.8-4.9c-0.5-2.7,1.6-4.7,3.2-6.5C421.8,186.5,423.9,183.8,426.5,181.5z"/>
	
		<linearGradient id="SVGID_19_" gradientUnits="userSpaceOnUse" x1="343.7979" y1="-500.9152" x2="169.605" y2="-400.3448" gradientTransform="matrix(1 0 0 -1 0 -123.6281)">
		<stop  offset="0" style="stop-color:#2E79FF"/>
		<stop  offset="0.75" style="stop-color:#3FEF8A"/>
	</linearGradient>
	<path class="st18" d="M389.4,381.8c-11,2.6-19.6,12.7-19.8,24.1c-0.9,11,7.1,21.1,17.1,24.8c13.8,4.7,30.8-5,33.1-19.7
		C423.5,394.1,405.8,377.8,389.4,381.8z"/>
	
		<linearGradient id="SVGID_20_" gradientUnits="userSpaceOnUse" x1="267.6875" y1="-556.0283" x2="93.3202" y2="-455.3572" gradientTransform="matrix(1 0 0 -1 0 -123.6281)">
		<stop  offset="0" style="stop-color:#2E79FF"/>
		<stop  offset="0.75" style="stop-color:#3FEF8A"/>
	</linearGradient>
	<path class="st19" d="M216.9,382c-10.2,2.8-18,12-18.6,22.6c-1.5,12.1,7.5,24.1,19.3,26.8c13.5,2.9,28.5-6.6,30.6-20.4
		C252.2,393.7,233.6,377.1,216.9,382z"/>
	
		<linearGradient id="SVGID_21_" gradientUnits="userSpaceOnUse" x1="236.3562" y1="-578.5381" x2="62.4562" y2="-478.1369" gradientTransform="matrix(1 0 0 -1 0 -123.6281)">
		<stop  offset="0" style="stop-color:#2E79FF"/>
		<stop  offset="0.75" style="stop-color:#3FEF8A"/>
	</linearGradient>
	<path class="st20" d="M146,382.1c-9.3,2.4-16.6,10.5-17.9,20.1c-2.1,11,3.9,23,14.3,27.4c14.9,7.2,35-4.8,35.4-21.4
		C179.8,391.8,161.8,377.1,146,382.1z"/>
</g>
</svg>
