<svg version="1.1" xmlns="http://www.w3.org/2000/svg" xmlns:xlink="http://www.w3.org/1999/xlink" x="0px" y="0px" viewBox="0 0 2000 1000" style="enable-background:new 0 0 2000 1000;" xml:space="preserve">
<style type="text/css">
	.st0{fill:#2E3552;}
	.st1{fill:#EBF3FA;}
	.st2{fill:#F7BE56;}
	.st3{fill:#3A556A;}
	.st4{fill:#64798A;}
	.st5{fill:#E56353;}
	.st6{fill:#F97369;}
	.st7{fill:#27A2DB;}
	.st8{fill:#2F4859;}
	.st9{fill:#EBF0F3;}
	.st10{fill:#D5D6DB;}
	.st11{fill:#FCD462;}
	.st12{fill:#D57912;}
	.st13{fill:#E69D43;}
	.st14{fill:#E78B37;}
	.st15{fill:#FFB27D;}
	.st16{fill:#91CECF;}
	.st17{fill:#2C3A64;}
	.st18{fill:#2B478B;}
	.st19{fill:#233862;}
	.st20{fill:#ED975D;}
	.st21{fill:#ABDDDA;}
	.st22{fill:none;stroke:#2E3552;stroke-width:8;stroke-linecap:round;stroke-linejoin:round;stroke-miterlimit:10;}
	.st23{fill:#C6C6C6;}
    .st122{fill:#FFCD69;}
    .st123{fill:#FF9171;}
    .st124{fill:#C5D3DE;}
    .st125{fill:#8AA8BD;stroke:#041d2d;stroke-width:5px;}
    .st126{fill:#E2E9EE;}
    .st127{fill:#99EBFA;}
    .st128{fill:#98EAF9;}
    .st129{fill:#333333;}

    svg {

        max-width: 300px;
        margin: 0 auto;
    }

    @keyframes pulsating_effect {

        50% {

           opacity: .8;
        }

        100% {

           opacity: 0;
           transform: scale(1.08);
        }
    }

    .bg path:nth-of-type(1) {

        opacity: 0;
        transform-origin: 971px 630px;
        animation: pulsating_effect 1.5s linear infinite;
    }

    .bg path:nth-of-type(2) {

        opacity: 0;
        transform-origin: 971px 630px;
        animation: pulsating_effect 1.5s .75s linear infinite;
    }

    @keyframes rotate_one {

    	15% {

    		transform: rotate(20deg);
    	}

    	30% {

    		transform: rotate(-10deg);
    	}

    	45% {

    		transform: rotate(20deg);
    	}

        60% {

            transform: rotate(-10deg);
        }

        80%, 100% {

    		transform: rotate(0deg);
    	}
    }

    .left_leg {

        transform-origin: 954.1px 711.4px;
    	animation: rotate_one 4s ease-out infinite;
    }

    @keyframes rotate_two {

    	15% {

    		transform: rotate(-20deg);
    	}

    	30% {

    		transform: rotate(0deg);
    	}

    	45% {

    		transform: rotate(-20deg);
    	}

    	60%, 100% {

    		transform: rotate(-0deg);
    	}
    }

    .right_leg {

        transform-origin: 923.6px 706.5px;
    	animation: rotate_two 4s ease-out infinite;
    }

    @keyframes move_right {

    	15% {

    		opacity: 1;
    	}

    	70% {

    		transform: translate(0px, 0px);
    	}

    	70% {

    		opacity: 1;
    	}

    	90%, 100% {

            opacity: 0;
    		transform: translate(0px, 0px);
    	}
    }

    .man_one {

        opacity: 0;
        transform-origin: 839.57px 733.4px;
    	transform: translate(-340px, 0px);
    	animation: move_right 4s ease-out infinite;
    }

    @keyframes bounce {

        0%   { 

        	transform: translateY(0) scale(1,1);
        }

        5%  {

            transform: translateY(0) scale(1.1,.9); 
        }

        15%  { 

        	transform: translateY(-50px) scale(.9,1.1); 
        }

        25%  { 

        	transform: translateY(0) scale(1.05,.95); 
        }

        28.5%  { 

        	transform: translateY(-7) scale(1,1); 
        }

        32%  { 

        	transform: translateY(0) scale(1,1); 
        }

        50%, 100% { 

        	transform: translateY(0) scale(1,1); 
        }
    }

    @keyframes vib {

    	50% {

    		transform: translateX(8px);
    	}
    }

    @keyframes move_left {

    	100% {

            opacity: 0;
    		transform: translateX(-200px);
    	}
    }

    .smog {

    	animation: move_left 1.5s linear infinite;
    }
</style>
<g class="bg">
	<path class="st1" d="M180.7,895c0,0-248.3-201.7-103.2-429.4c93.6-146.9,376.8-158.8,527.2-69.1c64,38.2,220.6,163.3,350-122.6   C1106-60.3,1985.2,181.8,1818.3,541c-102,219.5,289.7,156.1,102.1,354H180.7z"/>
    <path class="st1" d="M180.7,895c0,0-248.3-201.7-103.2-429.4c93.6-146.9,376.8-158.8,527.2-69.1c64,38.2,220.6,163.3,350-122.6   C1106-60.3,1985.2,181.8,1818.3,541c-102,219.5,289.7,156.1,102.1,354H180.7z"/>
</g>
<g>
    <path class="st1" d="M180.7,895c0,0-248.3-201.7-103.2-429.4c93.6-146.9,376.8-158.8,527.2-69.1c64,38.2,220.6,163.3,350-122.6   C1106-60.3,1985.2,181.8,1818.3,541c-102,219.5,289.7,156.1,102.1,354H180.7z"/>
</g>
<g class="bag_one">
    <path fill="#2F4054" d="M516.9,850.7c-6.9,6.4-16,9.9-25.4,9.8h-27.3c-33.4,0-50.1-40.4-26.5-64l19.3-19.3h41.7l4.7,4.7l14.6,14.6   C534.3,812.8,531.4,837.2,516.9,850.7z"/> -->
    <path fill="#262D43" d="M457,831.3h-8.3v-13.9c0-16.2,6.4-31.8,17.9-43.2l6.3-6.3l5.9,5.9l-6.3,6.3c-9.9,9.9-15.5,23.3-15.4,37.3   V831.3z"/>
    <path fill="#262D43" d="M502.8,817.4v13.9h-8.3v-13.9c0-3.6-0.4-7.2-1.1-10.8c-2.1-10-7.1-19.3-14.3-26.5l-6.3-6.2l5.9-5.9l6.3,6.3   C496.4,785.7,502.9,801.2,502.8,817.4z"/>
    <path fill="#AE7D4D" d="M454.9,764.7h45.8c3.5,0,6.3,2.8,6.3,6.3l0,0c0,3.5-2.8,6.3-6.3,6.3h-45.8c-3.5,0-6.3-2.8-6.3-6.3l0,0   C448.7,767.5,451.5,764.7,454.9,764.7z"/>
    <path fill="#2F4054" d="M452.8,752.2v-8.3c0-4.6,3.7-8.3,8.3-8.3c4.6,0,8.3,3.7,8.3,8.3c0,4.6,3.7,8.3,8.3,8.3   c4.6,0,8.3-3.7,8.3-8.3c0-4.6,3.7-8.3,8.3-8.3s8.3,3.7,8.3,8.3v8.3c0,6.9-5.6,12.5-12.5,12.5h-25   C458.4,764.7,452.8,759.1,452.8,752.2z"/>
</g>
<g class="bag_two">
    <path fill="#2F4054" d="M566.5,848h-27.3c-33.4,0-50.1-40.4-26.5-64l19.3-19.3h41.7l7.2,7.2L593,784   C616.6,807.6,599.9,848,566.5,848z"/>
    <path fill="#262D43" d="M532,818.8h-8.3v-13.9c0-16.2,6.4-31.8,17.9-43.2l6.3-6.3l5.9,5.9l-6.3,6.3c-9.9,9.9-15.5,23.3-15.4,37.3   V818.8z"/>
    <path fill="#262D43" d="M577.8,804.9v13.9h-8.3v-13.9c0-14-5.5-27.4-15.4-37.3l-6.3-6.3l5.9-5.9l6.3,6.3   C571.4,773.2,577.8,788.7,577.8,804.9z"/>
    <path fill="#AE7D4D" d="M529.9,752.2h45.8c3.5,0,6.3,2.8,6.3,6.3l0,0c0,3.5-2.8,6.3-6.3,6.3h-45.8c-3.5,0-6.3-2.8-6.3-6.3l0,0   C523.7,755,526.5,752.2,529.9,752.2z"/>
    <path fill="#2F4054" d="M527.8,739.7v-8.3c0-4.6,3.7-8.3,8.3-8.3c4.6,0,8.3,3.7,8.3,8.3c0,4.6,3.7,8.3,8.3,8.3   c4.6,0,8.3-3.7,8.3-8.3c0-4.6,3.7-8.3,8.3-8.3s8.3,3.7,8.3,8.3v8.3c0,6.9-5.6,12.5-12.5,12.5h-25   C533.4,752.2,527.8,746.6,527.8,739.7z"/>
    <path fill="#262D43" d="M566.5,848h-13.2c2.2-7.5,6.2-14.4,11.8-19.9l11.2-11.2c-4.5-6.3-3.3-15,2.8-19.8c-0.9-2.3-1.3-4.8-1.3-7.3   v-8.3c0-3.4,1-6.7,3-9.5L593,784C616.6,807.6,599.9,848,566.5,848z"/>
</g>
<g class="bag_three">
    <path fill="#2F4054" d="M651.3,834L632,814.7h-41.7L571,834c-23.6,23.6-6.9,64,26.5,64h27.3C658.2,898,674.9,857.6,651.3,834   L651.3,834z"/>
    <path fill="#262D43" d="M590.3,868.8H582v-13.9c0-16.2,6.4-31.8,17.9-43.2l6.3-6.3l5.9,5.9l-6.3,6.3c-9.9,9.9-15.5,23.3-15.4,37.3   V868.8z"/>
    <path fill="#262D43" d="M636.2,868.8h-8.3v-13.9c0-14-5.5-27.4-15.4-37.3l-6.3-6.3l5.9-5.9l6.3,6.3c11.5,11.4,17.9,27,17.9,43.2   V868.8z"/>
    <path fill="#AE7D4D" d="M588.3,802.2h45.8c3.5,0,6.3,2.8,6.3,6.3l0,0c0,3.5-2.8,6.3-6.3,6.3h-45.8c-3.5,0-6.3-2.8-6.3-6.3l0,0   C582,805,584.8,802.2,588.3,802.2z"/>
    <path fill="#2F4054" d="M586.2,789.7v-8.3c0-4.6,3.7-8.3,8.3-8.3s8.3,3.7,8.3,8.3c0,4.6,3.7,8.3,8.3,8.3c4.6,0,8.3-3.7,8.3-8.3   c0-4.6,3.7-8.3,8.3-8.3c4.6,0,8.3,3.7,8.3,8.3v8.3c0,6.9-5.6,12.5-12.5,12.5h-25C591.8,802.2,586.2,796.6,586.2,789.7z"/>
</g>
<g>
    <path fill="#AE7D4D" d="M602.8,881.3c0,9.2-7.5,16.7-16.7,16.7H440.3c-9.2,0-16.7-7.5-16.7-16.7c0-9.2,7.5-16.7,16.7-16.7   c0.2,0,0.4,0,0.5,0c-2.3-8.9,3-18,11.9-20.3c2.8-0.7,5.8-0.7,8.6,0.1c2-13.7,14.6-23.1,28.3-21.2c12.3,1.8,21.4,12.3,21.4,24.7h8.3   v20.8h29.2c0-9.2,7.5-16.7,16.7-16.7c7.8,0,14.6,5.5,16.3,13.1c8.9-2.5,18.1,2.6,20.6,11.5C602.6,878.3,602.8,879.8,602.8,881.3z"/>
    <path fill="#976342" d="M456.9,862.6l-5.5,6.3c-2.9-2.6-6.6-4-10.5-4.2c-0.7-2.7-0.7-5.6,0-8.3    C446.8,856.5,452.4,858.7,456.9,862.6z"/>
    <path fill="#976342" d="M478.7,848l-7.2,4.2c-2.2-3.8-5.8-6.6-10-7.7c0.4-2.8,1.3-5.5,2.5-7.9C470.2,838.3,475.4,842.4,478.7,848z    "/>
    <path fill="#976342" d="M581.6,865.3c-4.2,1.2-7.7,4-9.9,7.7l-7.2-4.2c3-5.1,7.7-9,13.3-11C579.7,859.9,581,862.5,581.6,865.3    L581.6,865.3z"/>
    <path fill="#EFBF33" d="M552.8,835.5v33.3c0,6.9-9.3,12.5-20.8,12.5s-20.8-5.6-20.8-12.5v-33.3H552.8z"/>
    <ellipse fill="#EFDD9B" cx="511.2" cy="812.6" rx="12.5" ry="18.8"/>
    <ellipse fill="#E98704" cx="532" cy="835.5" rx="20.8" ry="12.5"/> 
</g>
<g>
    <path fill="#FD9E28" d="M411.7,882.4h-86.6c-2.3,0-4.2-1.9-4.2-4.2c0-2.3,1.9-4.2,4.2-4.2h86.6c2.3,0,4.2,1.9,4.2,4.2   C416,880.5,414.1,882.4,411.7,882.4z"/>
    <path fill="#695A69" d="M325.1,878.2c0,11.5-9.3,20.8-20.8,20.8c-11.5,0-20.8-9.3-20.8-20.8c0-11.5,9.3-20.8,20.8-20.8   C315.8,857.3,325.1,866.7,325.1,878.2z"/>
    <path fill="#FD9E28" d="M311.3,878.2c0,3.9-3.1,7-7,7c-3.9,0-7-3.1-7-7c0-3.9,3.1-7,7-7C308.1,871.1,311.3,874.3,311.3,878.2z"/>
    <path fill="#695A69" d="M453.4,878.2c0,11.5-9.3,20.8-20.8,20.8c-11.5,0-20.8-9.3-20.8-20.8c0-11.5,9.3-20.8,20.8-20.8   C444.1,857.3,453.4,866.7,453.4,878.2z"/>
    <path fill="#FD9E28" d="M439.6,878.2c0,3.9-3.1,7-7,7c-3.9,0-7-3.1-7-7c0-3.9,3.1-7,7-7C436.4,871.1,439.6,874.3,439.6,878.2z"/>
    <path fill="#FD9E28" d="M455.7,859.8H274.3c-2.3,0-4.2-1.7-4.6-4L251,727.6c-0.4-2.8,1.8-5.3,4.6-5.3h218.9c2.8,0,5,2.5,4.6,5.3   l-18.8,128.2C459.9,858.1,458,859.8,455.7,859.8z"/>
    <path fill="#FD8724" d="M479,727.6l-18.8,128.2c-0.3,2.3-2.3,4-4.6,4h-12.1c2.3,0,4.2-1.7,4.6-4l18.8-128.2   c0.4-2.8-1.8-5.3-4.6-5.3h12.1C477.3,722.3,479.4,724.8,479,727.6z"/>
    <path fill="#695A69" d="M299.5,722.3h130.9v60.6c0,3.9-1.6,7.4-4.1,9.9c-2.5,2.5-6.1,4.1-9.9,4.1c-6.9,0-12.6-4.9-13.8-11.4   c-0.2-0.8-0.2-1.7-0.2-2.6V766c0-3.2-1.3-6.1-3.4-8.2c-2.1-2.1-5-3.4-8.2-3.4c-6.4,0-11.7,5.2-11.7,11.7v12.2   c0,3.9-1.6,7.4-4.1,9.9c-2.5,2.5-6.1,4.1-9.9,4.1c-7.8,0-14-6.3-14-14v-11.6c0-3.2-1.3-6.1-3.4-8.3c-2.1-2.1-5-3.4-8.3-3.4   c-6.4,0-11.7,5.2-11.7,11.7v47.5c0,3.9-1.6,7.4-4.1,9.9s-6.1,4.1-9.9,4.1c-7.8,0-14-6.3-14-14V722.3z"/>
    <path fill="#FEDFC5" d="M438.9,845.3h-28.8c-3.1,0-5.7-2.5-5.7-5.7v-22.7c0-3.1,2.5-5.7,5.7-5.7h28.8c3.1,0,5.7,2.5,5.7,5.7v22.7   C444.5,842.8,442,845.3,438.9,845.3z"/>
    <path fill="#695A69" d="M416.7,827.3c-2.3,0-4.3-1.9-4.3-4.2c0-2.3,1.9-4.2,4.2-4.2h0c2.3,0,4.2,1.9,4.2,4.2   C421,825.4,419.1,827.3,416.7,827.3z"/>
    <path fill="#695A69" d="M430.5,838.3h-13.7c-2.3,0-4.2-1.9-4.2-4.2s1.9-4.2,4.2-4.2h13.7c2.3,0,4.2,1.9,4.2,4.2   S432.8,838.3,430.5,838.3z"/>
    <path fill="#9F8A8A" d="M490,727.8c-0.5,7.5-6.6,13.7-14.2,14c-4.8,0.3-9.2-1.8-12.1-5.1c-3.9,2.6-8.6,4.2-13.7,4.2   c-7,0-13.4-2.9-17.9-7.7c-7.1,4.8-15.6,7.7-24.8,7.7c-6.7,0-13.1-1.5-18.8-4.2c-4.5,1.4-9.3,2.2-14.2,2.4c-1,0.1-2.1,0.1-3.1,0.1   c-12.8,0-24.7-4-34.5-10.8c-6.7,6.7-16,10.8-26.2,10.8c-7.8,0-15.1-2.4-21.1-6.5c-3.8,4-9.2,6.5-15.2,6.5c-4.3,0-8.3-1.3-11.7-3.5   c-2.3,2.7-5.8,4.3-9.6,4.3c-7.1,0-12.8-5.7-12.8-12.8c0-7.1,5.7-12.8,12.8-12.8c0.2,0,0.4,0,0.6,0c1.7-9.6,9.9-16.9,19.9-17.2   c1.8-14.4,11.8-26.3,25.1-30.8c-4.2-3.8-6.8-9.4-6.8-15.5c0-11.6,9.4-21,21-21c5.8,0,11.1,2.4,14.9,6.2   c11.1-11.4,26.5-18.5,43.6-18.5c31.7,0,57.8,24.3,60.5,55.3c9.1,0.8,17.6,7.3,19.1,18.2c0,0.2,0,0.3,0.1,0.5c2,0.1,4,0.4,5.8,0.9   c9,2.5,15.9,10,17.6,19.3c0.2,0,0.5,0,0.7,0C483.6,711.8,490.5,719.1,490,727.8z"/>
    <path fill="#83727A" d="M490,727.8c-0.5,7.5-6.6,13.7-14.2,14c-4.8,0.3-9.2-1.8-12.1-5.1c-3.9,2.6-8.6,4.2-13.7,4.2   c-7,0-13.4-2.9-17.9-7.7c-7.1,4.8-15.6,7.7-24.8,7.7c-6.7,0-13.1-1.5-18.8-4.2c-4.5,1.4-9.3,2.2-14.2,2.4   c54.1-8,75.3-27.8,82.4-46.6c9,2.5,15.9,10,17.6,19.3c0.2,0,0.5,0,0.7,0C483.6,711.8,490.5,719.1,490,727.8z"/>
    <path fill="#1FC99A" d="M299.3,693l-6.9-13.6c-1.6-3.2-1.9-6.7-1.2-9.9c0.9-3.9,0.6-8-1.2-11.5l-8.1-16c-0.1-0.1,0-0.3,0.1-0.4   l12.4-6.3l8.2,16.2c1.8,3.6,4.9,6.3,8.6,7.8c3,1.3,5.7,3.6,7.3,6.8l13.6,26.8H299.3z"/>
    <path fill="#7CFCCE" d="M282.6,646.9l15.4-7.8c3-1.5,4.1-5.1,2.6-8.1c-1.5-3-5.1-4.1-8.1-2.6l-15.4,7.8c-3,1.5-4.1,5.1-2.6,8.1   C276.1,647.2,279.7,648.4,282.6,646.9z"/>
    <path fill="#9F8A8A" d="M363.3,697.6c-6-14.7-20.4-25.1-37.3-25.1c-16.9,0-31.3,10.4-37.3,25.1H363.3z"/>
    <path fill="#83727A" d="M363.3,701.9c-1.7,0-3.3-1-3.9-2.7c-5.5-13.7-18.6-22.5-33.4-22.5c-14.7,0-27.8,8.8-33.4,22.5   c-0.9,2.2-3.4,3.2-5.5,2.3c-2.2-0.9-3.2-3.4-2.3-5.5c6.8-16.9,23-27.8,41.2-27.8c18.2,0,34.4,10.9,41.3,27.8   c0.9,2.2-0.2,4.6-2.3,5.5C364.4,701.8,363.9,701.9,363.3,701.9z"/>
    <path fill="#C6B2A9" d="M403.9,674v35.5c0,2.9,3.4,4.3,5.5,2.3l35.5-35.5c2-2,0.6-5.5-2.3-5.5h-35.5   C405.3,670.8,403.9,672.3,403.9,674z"/>
    <path fill="#EAE1DC" d="M409.3,711.8l38.6-38.6c2-2,0.6-5.4-2.2-5.5l-23.5-0.7c-1.4,0-2.6,0.8-3.1,2.1l-15.1,39.3   C402.8,711.6,406.9,714.3,409.3,711.8z"/>
    <path fill="#9F8A8A" d="M433.4,717.2c-3.9-9.6-13.3-16.4-24.4-16.4c-11,0-20.5,6.8-24.4,16.4H433.4z"/>
    <path fill="#83727A" d="M433.4,721.5c-1.7,0-3.3-1-3.9-2.7c-3.4-8.4-11.4-13.8-20.4-13.8s-17,5.4-20.4,13.8   c-0.9,2.2-3.4,3.2-5.5,2.3c-2.2-0.9-3.2-3.4-2.3-5.5c4.7-11.6,15.8-19.1,28.3-19.1s23.6,7.5,28.3,19.1c0.9,2.2-0.2,4.6-2.3,5.5   C434.5,721.4,434,721.5,433.4,721.5z"/>
</g>
<g class="man_one">
    <g class="left_leg">
        <polygon fill="#242D22" points="982.7,890.1 962.6,889.1 962.1,868.3 982.2,869.2   "/>
        <path fill="#895F27" d="M959.8,895.6h50.4l0,0c1-6.7-3.9-12.2-11-12.2h-37.8L959.8,895.6z"/>
        <rect x="959.8" y="895.6" fill="#242D22" width="50.4" height="2.4"/>
        <path fill="#9B6A35" d="M1002.6,889.9h-7.5c-1,0-1.9-0.8-1.9-1.9l0,0c0-1,0.8-1.9,1.9-1.9h7.5c1,0,1.9,0.8,1.9,1.9l0,0    C1004.5,889,1003.6,889.9,1002.6,889.9z"/>
        <path fill="#895F27" d="M990.2,883.4l-6.4-5.7h-9.4c-3.3,4.6-8.8,4.1-11.6,0h-0.8l-0.7,5.7H990.2z"/>
        <path fill="#C48735" d="M958.8,871.1h26.1c1.4-56.6-6.1-115.9-22.3-177.8h-26.1C950.3,756.5,958.7,816.4,958.8,871.1z"/>
        <polygon fill="#CCC5BC" points="985.1,849.6 958.1,849.5 958.4,853.9 985.1,854.4   "/>
        <polygon fill="#CCC5BC" points="985.1,856.5 958.6,856.4 958.7,860.9 985.1,861.4   "/>
    </g>
    <g class="right_leg">
        <polygon fill="#242D22" points="920.7,892.8 901,888.6 903.7,868 923.4,872.1   "/>
        <path fill="#895F27" d="M897.1,894.6l49.8,8l0,0c2.1-6.5-1.9-12.7-8.9-13.8l-37.3-6L897.1,894.6z"/>
        
            <rect x="896.7" y="898.6" transform="matrix(0.9873 0.1591 -0.1591 0.9873 154.9205 -135.2207)" fill="#242D22" width="50.4" height="2.4"/>
        <path fill="#9B6A35" d="M940.3,895.8l-7.4-1.2c-1-0.2-1.7-1.1-1.6-2.2l0,0c0.2-1,1.1-1.7,2.2-1.6l7.4,1.2c1,0.2,1.7,1.1,1.6,2.2    l0,0C942.3,895.2,941.3,895.9,940.3,895.8z"/>
        <path fill="#895F27" d="M929.1,887.4l-5.4-6.6l-9.2-1.5c-4,4.1-9.3,2.6-11.5-1.8l-0.8-0.1l-1.6,5.5L929.1,887.4z"/>
        <path fill="#DA9836" d="M900,870.3l25.8,4.2c10.3-55.7,17.6-117.3,11.5-181l-31-2.3C909.9,755.7,908.7,816.2,900,870.3z"/>
        <polygon fill="#CCC5BC" points="929.4,853.2 902.7,848.8 902.4,853.3 928.6,858   "/>
        <polygon fill="#CCC5BC" points="928.3,860 902.2,855.8 901.6,860.2 927.5,864.8   "/>
    </g>
    <g>
        <path fill="#895F27" d="M1030.6,703.5l-1-15.7c4.3,2.2,9.4,2.1,12.2,2.5l15.4-3.7c1.3-0.5,2.8,0.2,3.3,1.5l0,0    c0.5,1.3-0.2,2.8-1.5,3.3l-3.6,1.4c1.6,0.4,3,0.8,4.1,1.1l0,0c0.2,0,0.5,0.1,0.7,0.1l14.2,5.2c1.3,0.5,2,1.9,1.5,3.2    c-0.5,1.3-1.9,2-3.2,1.5l-12-4.4c0,0.1,0,0.1,0,0.2c0.2,0,0.3,0.1,0.5,0.1l14.2,5.2c1.3,0.5,2,1.9,1.5,3.2c-0.5,1.3-1.9,2-3.2,1.5    l-14.2-5.2c0,0,0,0,0,0c-0.1,0.1-0.1,0.2-0.2,0.3l10.6,3.9c1.3,0.5,2,1.9,1.5,3.2c-0.5,1.3-1.9,2-3.2,1.5l-1.7-0.6    c0.2,0.5,0.2,1.1,0,1.7c-0.5,1.3-1.9,2-3.2,1.5l-10.7-4l0,0l0,0l-3.5-1.3c-0.2-0.1-0.4-0.2-0.6-0.3L1030.6,703.5z"/>
        <polygon fill="#C48735" points="1025,702.7 1039.4,694.3 992.9,659.3 981.4,681   "/>
        <polygon fill="#895F27" points="1030.6,703.5 999.3,695.7 1011.9,670.7 1041.9,690.8   "/>
        <polygon fill="#C48735" points="981.4,681 996.6,663.4 975.3,606.3 955.9,622.2   "/>
        <polygon fill="#ED986D" points="950.5,677.1 969.8,680.5 964.7,624.8 945.3,621.3   "/>
        <path fill="#F79673" d="M945.6,578.1c0.2-0.7,15.7-50.8,15.7-50.8l12.8,38.3l-6.5,20.8L945.6,578.1z"/>
        <path fill="#AB6624" d="M965.5,497.2c0,0-3.4,19.7-6.3,33.4c-2.6,12.3-1.2,17.3-1.2,17.3l-9,17.6c0,0-2.8-11.2-8.2-18    C930.3,534.2,926.7,486.1,965.5,497.2z"/>
        <path fill="#FCA78D" d="M996,507.2c0,0,5.1,17.6,3.4,20.9c-1.7,3.3-1,4.5-1,4.5s0.5,9.2,5.7,15.5c2.2,2.7-4.9,6.1-6.7,10.7    c-0.8,2.2-1.6,8.9-1.6,8.9s-3.5,13.8-26.6,1.7c-11.6-6.1-12.6-11.9-15.9-22.2c-1-3.3,4.9-9.6,4-13.7c-2.3-10.8-6.8-23-6.8-23    S976.2,494.2,996,507.2z"/>
        <path fill="#2f3f60" d="M947.7,569.5c-42,22.5-34.7,72.1-49.1,123.1l69.8,27.9c9.1-49.4,16.1-104.1,0.4-135.6L947.7,569.5z"/>
        <path fill="#AB6624" d="M997.3,522.9c0,0,5.9-18.8-10.3-27.1c-21.1-10.8-32.7,4.4-36.2,6.5S925.6,544.5,997.3,522.9z"/>
        <path fill="#AB6624" d="M982.4,502.9c0,0,1.5,13.4-6.4,26.1c-7.8,12.7-9.7,21.5-9.7,21.5l-4.5-0.3c0,0-6.9,2.7-15.1-2.2    c-1-0.6,2.3,3.3,1.4,2.4C935.5,537.5,947.1,482.1,982.4,502.9z"/>
        <path fill="#CCC5BC" d="M931.6,526.3l68.2-0.7l-0.1-6.8c-0.2-18-14.9-32.4-32.9-32.2l-0.8,0c-19.2,0.2-34.7,16-34.5,35.2    L931.6,526.3z"/>
        <path fill="#CCC5BC" d="M957.4,525.4l54.1,0.4c1.5,0,2.7-1.2,2.7-2.7l0-1.1c0-1.5-1.2-2.7-2.7-2.7l-54.1-0.4    c-1.5,0-2.7,1.2-2.7,2.7l0,1.1C954.6,524.2,955.9,525.4,957.4,525.4z"/>
        <path fill="#242D22" d="M988.9,539.2c-0.1,2.6,0.9,4.7,2.2,4.7c1.3,0,2.4-2,2.4-4.6c0.1-2.6-0.9-4.7-2.2-4.7    C990,534.6,989,536.7,988.9,539.2z"/>
        <path fill="#242D22" d="M996.7,531.9c-2.3-2.8-8.3-2.7-10.5,0.1c-1,1.2,0.7,3,1.7,1.7c1.5-1.8,5.5-1.9,7.1-0.1      C996,534.8,997.7,533.1,996.7,531.9L996.7,531.9z"/>
        <path fill="#FFFFFF" d="M984.2,556.6l9.3,1.1l-1.9,7.7C985.4,564.7,984.2,556.6,984.2,556.6z"/>
        <path fill="#FCA78D" d="M952.1,548.1c2.4,4.6,6.7,7,9.6,5.5c2.9-1.5,3.3-6.5,0.9-11c-2.4-4.6-6.7-7-9.6-5.5    S949.7,543.5,952.1,548.1z"/>
        <path fill="#895F27" d="M979.6,720.4l8.1-13.4c2.3,4.2,6.5,7.1,8.6,9l14.8,5.8c1.4,0.3,2.2,1.7,1.9,3.1l0,0    c-0.3,1.4-1.7,2.2-3.1,1.9l-3.8-1c1.1,1.2,2,2.3,2.7,3.2l0,0c0.2,0.1,0.3,0.3,0.5,0.5l8.7,12.4c0.8,1.1,0.5,2.7-0.6,3.5    c-1.1,0.8-2.7,0.5-3.5-0.6l-7.3-10.5c0,0.1-0.1,0.1-0.1,0.2c0.1,0.1,0.2,0.2,0.3,0.4l8.7,12.4c0.8,1.1,0.5,2.7-0.6,3.5    c-1.1,0.8-2.7,0.5-3.5-0.6l-8.7-12.4c0,0,0,0,0,0c-0.1,0.1-0.2,0.1-0.4,0.2l6.4,9.3c0.8,1.1,0.5,2.7-0.6,3.5    c-1.1,0.8-2.7,0.5-3.5-0.6l-1-1.5c-0.1,0.6-0.5,1.1-1,1.4c-1.1,0.8-2.7,0.5-3.5-0.6l-6.5-9.4l0,0l0,0l-2.1-3.1    c-0.1-0.2-0.2-0.4-0.3-0.6L979.6,720.4z"/>
        <path fill="#d8ac01" d="M977.8,661.8c-3,3.8-70.2-16.5-69.1-21l2.2-9.6c23.3,13.1,45.6,20.9,66.8,21.7V661.8z"/>
        <path fill="#d8ac01" d="M968.4,720.5c-4,5.3-73.9-14.3-71.7-20.3l2.2-9.6c22.4,14.2,46,21.7,70.9,21.5L968.4,720.5z"/>
        <path fill="#DA9836" d="M938.1,680.5l25.6-8.3L952.4,600c-3.6-13.6-29-13.6-27,2.8L938.1,680.5z"/>
        <polygon fill="#DA9836" points="980.1,722 992.3,711.9 963.6,672.2 938.1,680.5   "/>
        <path fill="#C48735" d="M947.7,569.5l21.1,15.4c0,0,6.4,12.3,6.5,21.3l-34.3-32.7L947.7,569.5z"/>
    </g>
    <g>
        <path fill="#A29AA5" d="M1074,623.7c0.6-5.5-3.1-10.7-8.7-11.7l-14.1-2.6c-5.6-1-10.9,2.4-12.3,7.8l-5.8,2l-4.8-4    c2.7-11.2,13.6-18.5,24.9-16.4l14.1,2.6c11.3,2.1,18.8,12.8,17.2,24.2l-5.8,2L1074,623.7z"/>
        <path fill="#766D78" d="M1030.7,609.3l11.8,2.2c-1.7,1.4-3,3.3-3.6,5.6l-5.8,2l-4.8-4C1028.9,613.1,1029.6,611.1,1030.7,609.3    L1030.7,609.3z"/>
        <path fill="#766D78" d="M1084.6,625.7l-5.8,2l-4.8-4c0.3-2.3-0.2-4.6-1.3-6.5l11.8,2.2C1084.8,621.4,1084.9,623.5,1084.6,625.7z"/>
        <path fill="#A29AA5" d="M1060.6,754.9l-56-10.5c-9.5-1.8-16-10.5-14.9-20l9.6-90.4l54.1,2.7l52.1,17.2l-23.7,87.8    C1079.3,750.9,1070.1,756.7,1060.6,754.9L1060.6,754.9z"/>
        <path fill="#A29AA5" d="M1105.5,653.8l-1.6,5.8l-105.2-19.7l0.6-6l54.1,2.7L1105.5,653.8z"/>
        <path fill="#766D78" d="M1105.5,653.8l-52.1-17.2l-50.3-2.5l-3.7-1.2l-9.7,91.4c-1,9.5,5.5,18.3,14.9,20l7.5,1.4    c-9.5-1.8-16-10.5-14.9-20l8.3-77.8c0.4-3.6,3.7-6,7.2-5.4l91.2,17.1L1105.5,653.8z"/>
        <path fill="#A29AA5" d="M1111.1,654.8l-117.3-22c-1.7-0.3-2.7-1.9-2.4-3.6l0,0c2.1-11.2,12.9-18.6,24.1-16.5l82.7,15.5    c11.2,2.1,18.6,12.9,16.5,24.1l0,0C1114.3,654,1112.7,655.1,1111.1,654.8L1111.1,654.8z"/>
        <path fill="#766D78" d="M1000.4,630.9L1000.4,630.9c-0.3,1.7,0.8,3.3,2.4,3.6l-9-1.7c-1.7-0.3-2.7-1.9-2.4-3.6l0,0     c2.1-11.2,12.9-18.6,24.1-16.5l9,1.7C1013.3,612.3,1002.5,619.7,1000.4,630.9z"/>
        <path fill="#766D78" d="M1035.6,733.4c-3-0.6-5-3.5-4.4-6.5l11.7-62.4c0.6-3,3.5-5,6.5-4.4s5,3.5,4.4,6.5l-11.7,62.4     C1041.6,732,1038.7,734,1035.6,733.4L1035.6,733.4z"/>
        <path fill="#766D78" d="M1061.6,738.3c-0.1,0-0.3-0.1-0.4-0.1c-3-0.8-4.7-3.8-3.9-6.8l16.6-61.4c0.8-3,3.8-4.7,6.8-3.9     c3,0.8,4.7,3.8,3.9,6.8l-16.6,61.4C1067.2,737.1,1064.4,738.8,1061.6,738.3z"/>
        <path fill="#766D78" d="M1009.7,728.5c-2.8-0.5-4.8-3.1-4.5-6l6.7-63.3c0.3-3,3.1-5.3,6.1-4.9c3,0.3,5.3,3.1,4.9,6.1l-6.7,63.3     c-0.3,3-3.1,5.3-6.1,4.9C1010,728.6,1009.8,728.6,1009.7,728.5z"/>
    </g>
    <g>
        <path fill="#895F27" d="M979.6,720.4l8.1-13.4c2.3,4.2,6.5,7.1,8.6,9l14.8,5.8c1.4,0.3,2.2,1.7,1.9,3.1l0,0    c-0.3,1.4-1.7,2.2-3.1,1.9l-3.8-1c1.1,1.2,2,2.3,2.7,3.2l0,0c0.2,0.1,0.3,0.3,0.5,0.5l8.7,12.4c0.8,1.1,0.5,2.7-0.6,3.5    c-1.1,0.8-2.7,0.5-3.5-0.6l-7.3-10.5c0,0.1-0.1,0.1-0.1,0.2c0.1,0.1,0.2,0.2,0.3,0.4l8.7,12.4c0.8,1.1,0.5,2.7-0.6,3.5    c-1.1,0.8-2.7,0.5-3.5-0.6l-8.7-12.4c0,0,0,0,0,0c-0.1,0.1-0.2,0.1-0.4,0.2l6.4,9.3c0.8,1.1,0.5,2.7-0.6,3.5    c-1.1,0.8-2.7,0.5-3.5-0.6l-1-1.5c-0.1,0.6-0.5,1.1-1,1.4c-1.1,0.8-2.7,0.5-3.5-0.6l-6.5-9.4l0,0l0,0l-2.1-3.1    c-0.1-0.2-0.2-0.4-0.3-0.6L979.6,720.4z"/>
    </g>
</g>
<g class="smog">
    <circle class="st23" cx="938.6" cy="817.8" r="11.2"/>
    <circle class="st23" cx="1030.6" cy="817.8" r="7"/>
</g>
<g class="truck">
    <g>
        <path fill="#AE7D4D" d="M1312.8,629.2c0,9.2-7.5,16.7-16.7,16.7h-145.8c-9.2,0-16.7-7.5-16.7-16.7c0-9.2,7.5-16.7,16.7-16.7   c0.2,0,0.4,0,0.5,0c-2.3-8.9,3-18,11.9-20.3c2.8-0.7,5.8-0.7,8.6,0.1c2-13.7,14.6-23.1,28.3-21.2c12.3,1.8,21.4,12.3,21.4,24.7h8.3   v20.8h29.2c0-9.2,7.5-16.7,16.7-16.7c7.8,0,14.6,5.5,16.3,13.1c8.9-2.5,18.1,2.6,20.6,11.5C1312.6,626.1,1312.8,627.6,1312.8,629.2   z"/>
        <path fill="#976342" d="M1166.8,610.4l-5.5,6.3c-2.9-2.6-6.6-4-10.5-4.2c-0.7-2.7-0.7-5.6,0-8.3    C1156.7,604.3,1162.4,606.5,1166.8,610.4z"/>
        <path fill="#976342" d="M1188.6,595.8l-7.2,4.2c-2.2-3.8-5.8-6.6-10-7.7c0.4-2.8,1.3-5.5,2.5-7.9    C1180.1,586.1,1185.4,590.2,1188.6,595.8z"/>
        <path fill="#976342" d="M1291.6,613.1c-4.2,1.2-7.7,4-9.9,7.7l-7.2-4.2c3-5.1,7.7-9,13.3-11C1289.7,607.7,1291,610.3,1291.6,613.1    L1291.6,613.1z"/>
        <path fill="#EFBF33" d="M1262.8,583.3v33.3c0,6.9-9.3,12.5-20.8,12.5s-20.8-5.6-20.8-12.5v-33.3H1262.8z"/>
        <ellipse fill="#E98704" cx="1242" cy="583.3" rx="20.8" ry="12.5"/>
    </g>
    <path fill="#FFDC64" d="M1657.5,645.6l-113.3-18.8l-54.8-142.5h-131.5c-12.1,0-22,9.8-22,22v120.6h-329c-6.1,0-10.9,5-10.9,10.9   v153.6c0,12.1,9.8,22,22,22l647-0.1c6.1,0,10.9-5,10.9-10.9V667.3C1675.9,656.6,1668.1,647.4,1657.5,645.6z"/>
    <path fill="#FFC850" d="M996,758.4h679.9v43.9c0,6.1-5,10.9-10.9,10.9h-647c-12.1,0-22-9.8-22-22V758.4z"/>
    <path fill="#E1A546" d="M1236.5,813.2c-5.4-49.3-47.2-87.7-98-87.7c-50.7,0-92.6,38.3-98,87.7H1236.5z"/>
    <path fill="#E1A546" d="M1664.2,813.2c-5.4-49.3-47.2-87.7-98-87.7c-50.7,0-92.6,38.3-98,87.7H1664.2z"/>
    <path fill="#FFF082" d="M1379.8,670.7h296.1v-3.4c0-10.7-7.8-19.8-18.4-21.6l-112.9-18.8h-164.8c-12.1,0-22,9.8-22,22l0,0   C1357.9,660.9,1367.7,670.7,1379.8,670.7z"/>
    <circle fill="#5B5D6E" cx="1566.2" cy="824.1" r="76.8"/>
    <circle fill="#C7CFE2" cx="1566.2" cy="824.1" r="43.7"/>
    <circle fill="#AFB9D2" cx="1566.2" cy="824.1" r="21.9"/>
    <circle fill="#5B5D6E" cx="1138.5" cy="824.1" r="76.8"/>
    <ellipse transform="matrix(0.1602 -0.9871 0.9871 0.1602 142.6771 1815.9308)" fill="#C7CFE2" cx="1138.5" cy="824.1" rx="43.7" ry="43.7"/>
    <path fill="#FFFABE" d="M1632,681.6v22c0,12.1,9.8,22,22,22h22v-54.8h-32.9C1637,670.7,1632,675.6,1632,681.6z"/>
    <circle fill="#AFB9D2" cx="1138.5" cy="824.1" r="21.9"/>
    <path fill="#FFF082" d="M1500.5,506.2h-131.6c-6.1,0-10.9-5-10.9-10.9c0-6.1,5-10.9,10.9-10.9h131.6c6.1,0,10.9,5,10.9,10.9   C1511.4,501.3,1506.5,506.2,1500.5,506.2z"/>
    <path fill="#00D7FF" d="M1412.7,626.8h131.6l-38-98.7h-104.6c-6.1,0-10.9,5-10.9,10.9v65.8C1390.7,616.9,1400.6,626.8,1412.7,626.8   z"/>
    <path fill="#00C3FF" d="M1514.8,550l-8.5-22h-105c-5.9,0.2-10.6,5-10.6,10.9v11H1514.8z"/>
    <path fill="#E1A546" d="M1320.1,813.2h37.4c-12-0.2-21.5-9.9-21.5-21.9V626.8h-22v164.5C1314,799.3,1316.3,806.8,1320.1,813.2z"/>
    <path fill="#FFF082" d="M1281.2,670.7h-252.2c-6.1,0-10.9-5-10.9-10.9l0,0c0-6.1,5-10.9,10.9-10.9h252.2c6.1,0,10.9,5,10.9,10.9   l0,0C1292.1,665.8,1287.1,670.7,1281.2,670.7z"/>
</g>
<g>
    <line class="st22" x1="0" y1="902" x2="2000" y2="902"/>
</g>
</svg>